<mxfile host="app.diagrams.net" modified="2023-05-17T20:15:41.167Z" agent="Mozilla/5.0 (Windows NT 10.0; Win64; x64) AppleWebKit/537.36 (KHTML, like Gecko) Chrome/113.0.0.0 Safari/537.36" etag="_LUhTaLKm19-SvWL8Vvr" version="21.3.2" type="device">
  <diagram id="C5RBs43oDa-KdzZeNtuy" name="Page-1">
    <mxGraphModel dx="2220" dy="2063" grid="0" gridSize="10" guides="1" tooltips="1" connect="1" arrows="1" fold="1" page="0" pageScale="1" pageWidth="1654" pageHeight="1169" background="#FFFFFF" math="0" shadow="0">
      <root>
        <mxCell id="WIyWlLk6GJQsqaUBKTNV-0" />
        <mxCell id="WIyWlLk6GJQsqaUBKTNV-1" parent="WIyWlLk6GJQsqaUBKTNV-0" />
        <mxCell id="LVGzZkpI44pS8CkY22WA-0" value="&lt;font style=&quot;font-size: 13px;&quot;&gt;User&lt;/font&gt;" style="swimlane;fontStyle=1;align=center;verticalAlign=top;childLayout=stackLayout;horizontal=1;startSize=30;horizontalStack=0;resizeParent=1;resizeParentMax=0;resizeLast=0;collapsible=1;marginBottom=0;whiteSpace=wrap;html=1;fillColor=#009999;rounded=1;shadow=1;glass=1;swimlaneLine=0;strokeColor=#009999;strokeWidth=2;fontSize=13;" parent="WIyWlLk6GJQsqaUBKTNV-1" vertex="1">
          <mxGeometry x="90" y="-1080" width="370" height="150" as="geometry" />
        </mxCell>
        <mxCell id="LVGzZkpI44pS8CkY22WA-1" value="&lt;font style=&quot;font-size: 13px;&quot;&gt;- username : String&amp;nbsp;&lt;br&gt;- password : String&amp;nbsp;&lt;/font&gt;" style="text;strokeColor=none;fillColor=none;align=left;verticalAlign=top;spacingLeft=4;spacingRight=4;overflow=hidden;rotatable=0;points=[[0,0.5],[1,0.5]];portConstraint=eastwest;whiteSpace=wrap;html=1;" parent="LVGzZkpI44pS8CkY22WA-0" vertex="1">
          <mxGeometry y="30" width="370" height="60" as="geometry" />
        </mxCell>
        <mxCell id="LVGzZkpI44pS8CkY22WA-2" value="" style="line;strokeWidth=2;fillColor=none;align=left;verticalAlign=middle;spacingTop=-1;spacingLeft=3;spacingRight=3;rotatable=0;labelPosition=right;points=[];portConstraint=eastwest;strokeColor=inherit;shadow=1;" parent="LVGzZkpI44pS8CkY22WA-0" vertex="1">
          <mxGeometry y="90" width="370" height="8" as="geometry" />
        </mxCell>
        <mxCell id="LVGzZkpI44pS8CkY22WA-3" value="&lt;font style=&quot;font-size: 13px;&quot;&gt;+ verifyAccount( String username, String password) : boolean&amp;nbsp;&lt;/font&gt;" style="text;strokeColor=none;fillColor=none;align=left;verticalAlign=top;spacingLeft=4;spacingRight=4;overflow=hidden;rotatable=0;points=[[0,0.5],[1,0.5]];portConstraint=eastwest;whiteSpace=wrap;html=1;fontSize=13;" parent="LVGzZkpI44pS8CkY22WA-0" vertex="1">
          <mxGeometry y="98" width="370" height="52" as="geometry" />
        </mxCell>
        <mxCell id="LVGzZkpI44pS8CkY22WA-8" value="&lt;font style=&quot;font-size: 13px;&quot;&gt;Timer&lt;/font&gt;" style="swimlane;fontStyle=1;align=center;verticalAlign=top;childLayout=stackLayout;horizontal=1;startSize=26;horizontalStack=0;resizeParent=1;resizeParentMax=0;resizeLast=0;collapsible=1;marginBottom=0;whiteSpace=wrap;html=1;fillColor=#009999;rounded=1;shadow=1;glass=1;swimlaneLine=0;strokeColor=#009999;strokeWidth=2;" parent="WIyWlLk6GJQsqaUBKTNV-1" vertex="1">
          <mxGeometry x="205" y="-460" width="190" height="160" as="geometry" />
        </mxCell>
        <mxCell id="LVGzZkpI44pS8CkY22WA-9" value="&lt;font style=&quot;font-size: 13px;&quot;&gt;-timeLeftInSeconds : int&lt;br&gt;-isRunning : boolean&lt;br&gt;+setTimer : int&lt;br&gt;&lt;/font&gt;" style="text;strokeColor=none;fillColor=none;align=left;verticalAlign=top;spacingLeft=4;spacingRight=4;overflow=hidden;rotatable=0;points=[[0,0.5],[1,0.5]];portConstraint=eastwest;whiteSpace=wrap;html=1;" parent="LVGzZkpI44pS8CkY22WA-8" vertex="1">
          <mxGeometry y="26" width="190" height="54" as="geometry" />
        </mxCell>
        <mxCell id="LVGzZkpI44pS8CkY22WA-10" value="" style="line;strokeWidth=2;fillColor=none;align=left;verticalAlign=middle;spacingTop=-1;spacingLeft=3;spacingRight=3;rotatable=0;labelPosition=right;points=[];portConstraint=eastwest;strokeColor=inherit;shadow=1;" parent="LVGzZkpI44pS8CkY22WA-8" vertex="1">
          <mxGeometry y="80" width="190" height="8" as="geometry" />
        </mxCell>
        <mxCell id="LVGzZkpI44pS8CkY22WA-11" value="&lt;font style=&quot;font-size: 13px;&quot;&gt;+start() : void&lt;br&gt;+stop() : void&lt;br&gt;+getTimeLeftInSeconds() : int&lt;/font&gt;" style="text;strokeColor=none;fillColor=none;align=left;verticalAlign=top;spacingLeft=4;spacingRight=4;overflow=hidden;rotatable=0;points=[[0,0.5],[1,0.5]];portConstraint=eastwest;whiteSpace=wrap;html=1;" parent="LVGzZkpI44pS8CkY22WA-8" vertex="1">
          <mxGeometry y="88" width="190" height="72" as="geometry" />
        </mxCell>
        <mxCell id="LVGzZkpI44pS8CkY22WA-16" value="&lt;font style=&quot;font-size: 13px;&quot;&gt;Board&lt;/font&gt;" style="swimlane;fontStyle=1;align=center;verticalAlign=top;childLayout=stackLayout;horizontal=1;startSize=26;horizontalStack=0;resizeParent=1;resizeParentMax=0;resizeLast=0;collapsible=1;marginBottom=0;whiteSpace=wrap;html=1;fillColor=#009999;strokeColor=#009999;rounded=1;shadow=1;glass=1;swimlaneLine=0;strokeWidth=2;arcSize=50;fontSize=13;" parent="WIyWlLk6GJQsqaUBKTNV-1" vertex="1">
          <mxGeometry x="892" y="-969" width="346" height="349" as="geometry" />
        </mxCell>
        <mxCell id="LVGzZkpI44pS8CkY22WA-17" value="&lt;span style=&quot;font-size: 13px;&quot;&gt;moveCounter: int&lt;br&gt;-column: int&lt;br&gt;-row: int&lt;br&gt;+spotSize: int&lt;br&gt;+selectedPiece: Pieces&lt;br&gt;+checkScanner: KingCheck&lt;br&gt;mouseAction: MouseAction&lt;br&gt;&lt;br&gt;&lt;/span&gt;" style="text;strokeColor=none;fillColor=none;align=left;verticalAlign=top;spacingLeft=4;spacingRight=4;overflow=hidden;rotatable=0;points=[[0,0.5],[1,0.5]];portConstraint=eastwest;whiteSpace=wrap;html=1;" parent="LVGzZkpI44pS8CkY22WA-16" vertex="1">
          <mxGeometry y="26" width="346" height="122" as="geometry" />
        </mxCell>
        <mxCell id="LVGzZkpI44pS8CkY22WA-18" value="" style="line;strokeWidth=2;fillColor=none;align=left;verticalAlign=middle;spacingTop=-1;spacingLeft=3;spacingRight=3;rotatable=0;labelPosition=right;points=[];portConstraint=eastwest;strokeColor=inherit;shadow=1;" parent="LVGzZkpI44pS8CkY22WA-16" vertex="1">
          <mxGeometry y="148" width="346" height="8" as="geometry" />
        </mxCell>
        <mxCell id="LVGzZkpI44pS8CkY22WA-19" value="&lt;font style=&quot;&quot;&gt;&lt;font style=&quot;font-size: 14px;&quot;&gt;&lt;font style=&quot;&quot;&gt;+getPiece(int column, int row): Pieces&lt;br&gt;+isValidMove(Move move): boolean&lt;br&gt;+isValidMove1(Move move): boolean&lt;br&gt;+MoveKing(Move move): void&lt;/font&gt;&lt;span style=&quot;color: rgb(31, 35, 40); font-family: ui-monospace, SFMono-Regular, &amp;quot;SF Mono&amp;quot;, Menlo, Consolas, &amp;quot;Liberation Mono&amp;quot;, monospace;&quot;&gt;)&lt;br&gt;&lt;/span&gt;&lt;font style=&quot;&quot;&gt;+makeMove&lt;span style=&quot;color: rgb(31, 35, 40); font-family: ui-monospace, SFMono-Regular, &amp;quot;SF Mono&amp;quot;, Menlo, Consolas, &amp;quot;Liberation Mono&amp;quot;, monospace;&quot;&gt;(&lt;/span&gt;&lt;span style=&quot;box-sizing: border-box; color: var(--color-prettylights-syntax-storage-modifier-import); font-family: ui-monospace, SFMono-Regular, &amp;quot;SF Mono&amp;quot;, Menlo, Consolas, &amp;quot;Liberation Mono&amp;quot;, monospace;&quot; class=&quot;pl-smi&quot;&gt;Move&lt;/span&gt;&lt;span style=&quot;color: rgb(31, 35, 40); font-family: ui-monospace, SFMono-Regular, &amp;quot;SF Mono&amp;quot;, Menlo, Consolas, &amp;quot;Liberation Mono&amp;quot;, monospace;&quot;&gt; &lt;/span&gt;&lt;span style=&quot;box-sizing: border-box; color: rgb(31, 35, 40); font-family: ui-monospace, SFMono-Regular, &amp;quot;SF Mono&amp;quot;, Menlo, Consolas, &amp;quot;Liberation Mono&amp;quot;, monospace;&quot; class=&quot;pl-s1&quot;&gt;move&lt;/span&gt;&lt;span style=&quot;color: rgb(31, 35, 40); font-family: ui-monospace, SFMono-Regular, &amp;quot;SF Mono&amp;quot;, Menlo, Consolas, &amp;quot;Liberation Mono&amp;quot;, monospace;&quot;&gt;): void&lt;br&gt;&lt;/span&gt;&lt;/font&gt;+kill(Move move): void&lt;font face=&quot;JetBrains Mono, monospace&quot; color=&quot;#a9b7c6&quot;&gt;&lt;span style=&quot;background-color: rgb(43, 43, 43);&quot;&gt;&lt;br&gt;&lt;/span&gt;&lt;/font&gt;&lt;font style=&quot;&quot;&gt;&lt;font style=&quot;&quot;&gt;+sameColor&lt;font style=&quot;&quot; color=&quot;#1f2328&quot;&gt;(&lt;/font&gt;&lt;span style=&quot;box-sizing: border-box; color: var(--color-prettylights-syntax-storage-modifier-import); font-family: ui-monospace, SFMono-Regular, &amp;quot;SF Mono&amp;quot;, Menlo, Consolas, &amp;quot;Liberation Mono&amp;quot;, monospace;&quot; class=&quot;pl-smi&quot;&gt;Pieces&lt;/span&gt;&lt;span style=&quot;color: rgb(31, 35, 40); font-family: ui-monospace, SFMono-Regular, &amp;quot;SF Mono&amp;quot;, Menlo, Consolas, &amp;quot;Liberation Mono&amp;quot;, monospace;&quot;&gt; &lt;/span&gt;&lt;span style=&quot;box-sizing: border-box; color: rgb(31, 35, 40); font-family: ui-monospace, SFMono-Regular, &amp;quot;SF Mono&amp;quot;, Menlo, Consolas, &amp;quot;Liberation Mono&amp;quot;, monospace;&quot; class=&quot;pl-s1&quot;&gt;p1&lt;/span&gt;&lt;span style=&quot;color: rgb(31, 35, 40); font-family: ui-monospace, SFMono-Regular, &amp;quot;SF Mono&amp;quot;, Menlo, Consolas, &amp;quot;Liberation Mono&amp;quot;, monospace;&quot;&gt; , &lt;/span&gt;&lt;span style=&quot;box-sizing: border-box; color: var(--color-prettylights-syntax-storage-modifier-import); font-family: ui-monospace, SFMono-Regular, &amp;quot;SF Mono&amp;quot;, Menlo, Consolas, &amp;quot;Liberation Mono&amp;quot;, monospace;&quot; class=&quot;pl-smi&quot;&gt;Pieces&lt;/span&gt;&lt;span style=&quot;color: rgb(31, 35, 40); font-family: ui-monospace, SFMono-Regular, &amp;quot;SF Mono&amp;quot;, Menlo, Consolas, &amp;quot;Liberation Mono&amp;quot;, monospace;&quot;&gt; &lt;/span&gt;&lt;span style=&quot;box-sizing: border-box; color: rgb(31, 35, 40); font-family: ui-monospace, SFMono-Regular, &amp;quot;SF Mono&amp;quot;, Menlo, Consolas, &amp;quot;Liberation Mono&amp;quot;, monospace;&quot; class=&quot;pl-s1&quot;&gt;p2&lt;/span&gt;&lt;span style=&quot;color: rgb(31, 35, 40); font-family: ui-monospace, SFMono-Regular, &amp;quot;SF Mono&amp;quot;, Menlo, Consolas, &amp;quot;Liberation Mono&amp;quot;, monospace;&quot;&gt;): boolean&lt;br&gt;&lt;/span&gt;&lt;/font&gt;+addPieces(): void&lt;br&gt;findKing(booelan isWhite): Pieces&lt;br&gt;+isKingInCheck(boolean isWhiteKing): boolean&lt;br&gt;&lt;br&gt;&lt;/font&gt;&lt;/font&gt;&lt;br&gt;&lt;/font&gt;" style="text;strokeColor=none;fillColor=none;align=left;verticalAlign=top;spacingLeft=4;spacingRight=4;overflow=hidden;rotatable=0;points=[[0,0.5],[1,0.5]];portConstraint=eastwest;whiteSpace=wrap;html=1;" parent="LVGzZkpI44pS8CkY22WA-16" vertex="1">
          <mxGeometry y="156" width="346" height="193" as="geometry" />
        </mxCell>
        <mxCell id="LVGzZkpI44pS8CkY22WA-20" value="&lt;font style=&quot;font-size: 13px;&quot;&gt;Game&lt;/font&gt;" style="swimlane;fontStyle=1;align=center;verticalAlign=top;childLayout=stackLayout;horizontal=1;startSize=30;horizontalStack=0;resizeParent=1;resizeParentMax=0;resizeLast=0;collapsible=1;marginBottom=0;whiteSpace=wrap;html=1;fillColor=#009999;strokeColor=#009999;rounded=1;shadow=1;swimlaneLine=1;glass=1;strokeWidth=2;" parent="WIyWlLk6GJQsqaUBKTNV-1" vertex="1">
          <mxGeometry x="542" y="-893" width="250" height="250" as="geometry" />
        </mxCell>
        <mxCell id="LVGzZkpI44pS8CkY22WA-21" value="&lt;font style=&quot;font-size: 13px;&quot;&gt;-status : GameStatus&lt;br&gt;-player1 : Player&lt;br&gt;-player2 : Player&lt;br&gt;-currentPlayer : Player&lt;br&gt;-board&amp;nbsp; : Board&lt;/font&gt;" style="text;strokeColor=none;fillColor=none;align=left;verticalAlign=top;spacingLeft=4;spacingRight=4;overflow=hidden;rotatable=0;points=[[0,0.5],[1,0.5]];portConstraint=eastwest;whiteSpace=wrap;html=1;rounded=1;glass=1;shadow=1;" parent="LVGzZkpI44pS8CkY22WA-20" vertex="1">
          <mxGeometry y="30" width="250" height="90" as="geometry" />
        </mxCell>
        <mxCell id="LVGzZkpI44pS8CkY22WA-22" value="" style="line;strokeWidth=2;fillColor=none;align=left;verticalAlign=middle;spacingTop=-1;spacingLeft=3;spacingRight=3;rotatable=0;labelPosition=right;points=[];portConstraint=eastwest;strokeColor=inherit;shadow=1;" parent="LVGzZkpI44pS8CkY22WA-20" vertex="1">
          <mxGeometry y="120" width="250" height="8" as="geometry" />
        </mxCell>
        <mxCell id="LVGzZkpI44pS8CkY22WA-23" value="&lt;font style=&quot;font-size: 13px;&quot;&gt;+getStatus() : void&lt;br&gt;+setStatus( status : GameStatus ) : void&lt;br&gt;+isGameOver() : boolean&lt;br&gt;+hasTimeEnded() : GameStatus&lt;br&gt;+switchTurn() : Player&lt;br&gt;+play() : void&lt;/font&gt;" style="text;strokeColor=none;fillColor=none;align=left;verticalAlign=top;spacingLeft=4;spacingRight=4;overflow=hidden;rotatable=0;points=[[0,0.5],[1,0.5]];portConstraint=eastwest;whiteSpace=wrap;html=1;rounded=1;glass=1;shadow=1;" parent="LVGzZkpI44pS8CkY22WA-20" vertex="1">
          <mxGeometry y="128" width="250" height="122" as="geometry" />
        </mxCell>
        <mxCell id="LVGzZkpI44pS8CkY22WA-24" value="&lt;font style=&quot;font-size: 13px;&quot;&gt;Move&lt;/font&gt;" style="swimlane;fontStyle=1;align=center;verticalAlign=top;childLayout=stackLayout;horizontal=1;startSize=26;horizontalStack=0;resizeParent=1;resizeParentMax=0;resizeLast=0;collapsible=1;marginBottom=0;whiteSpace=wrap;html=1;fillColor=#009999;strokeColor=#009999;strokeWidth=2;rounded=1;shadow=1;glass=1;swimlaneLine=0;" parent="WIyWlLk6GJQsqaUBKTNV-1" vertex="1">
          <mxGeometry x="1465" y="-969" width="370" height="184" as="geometry" />
        </mxCell>
        <mxCell id="LVGzZkpI44pS8CkY22WA-25" value="&lt;font style=&quot;font-size: 13px;&quot;&gt;oldColumn: int&lt;br&gt;oldRow: int&lt;br&gt;newColumn: int&lt;br&gt;newRow: int&lt;br&gt;selectedPiece: Pieces&lt;br&gt;killedPiece: Pieces&lt;br&gt;promotedPawn: Pieces&lt;br&gt;&lt;/font&gt;" style="text;strokeColor=none;fillColor=none;align=left;verticalAlign=top;spacingLeft=4;spacingRight=4;overflow=hidden;rotatable=0;points=[[0,0.5],[1,0.5]];portConstraint=eastwest;whiteSpace=wrap;html=1;" parent="LVGzZkpI44pS8CkY22WA-24" vertex="1">
          <mxGeometry y="26" width="370" height="124" as="geometry" />
        </mxCell>
        <mxCell id="LVGzZkpI44pS8CkY22WA-26" value="" style="line;strokeWidth=2;fillColor=none;align=left;verticalAlign=middle;spacingTop=-1;spacingLeft=3;spacingRight=3;rotatable=0;labelPosition=right;points=[];portConstraint=eastwest;strokeColor=inherit;shadow=1;" parent="LVGzZkpI44pS8CkY22WA-24" vertex="1">
          <mxGeometry y="150" width="370" height="8" as="geometry" />
        </mxCell>
        <mxCell id="LVGzZkpI44pS8CkY22WA-27" value="&lt;font style=&quot;font-size: 13px;&quot;&gt;&lt;br&gt;&lt;/font&gt;" style="text;strokeColor=none;fillColor=none;align=left;verticalAlign=top;spacingLeft=4;spacingRight=4;overflow=hidden;rotatable=0;points=[[0,0.5],[1,0.5]];portConstraint=eastwest;whiteSpace=wrap;html=1;" parent="LVGzZkpI44pS8CkY22WA-24" vertex="1">
          <mxGeometry y="158" width="370" height="26" as="geometry" />
        </mxCell>
        <mxCell id="LVGzZkpI44pS8CkY22WA-28" value="&lt;font style=&quot;font-size: 13px;&quot;&gt;Pieces&lt;/font&gt;" style="swimlane;fontStyle=1;align=center;verticalAlign=top;childLayout=stackLayout;horizontal=1;startSize=26;horizontalStack=0;resizeParent=1;resizeParentMax=0;resizeLast=0;collapsible=1;marginBottom=0;whiteSpace=wrap;html=1;fillColor=#009999;strokeColor=#009999;strokeWidth=2;glass=1;swimlaneLine=0;rounded=1;shadow=1;fontSize=13;" parent="WIyWlLk6GJQsqaUBKTNV-1" vertex="1">
          <mxGeometry x="968" y="-493" width="350" height="303" as="geometry">
            <mxRectangle x="270" y="190" width="70" height="30" as="alternateBounds" />
          </mxGeometry>
        </mxCell>
        <mxCell id="LVGzZkpI44pS8CkY22WA-29" value="&lt;font style=&quot;font-size: 14px;&quot;&gt;move: Move&lt;br&gt;position_x : int&lt;br style=&quot;border-color: var(--border-color);&quot;&gt;position_y : int&lt;br&gt;column: int&lt;br style=&quot;border-color: var(--border-color);&quot;&gt;row: int&lt;br&gt;isWhite: boolean&lt;br&gt;pieceName: String&lt;br&gt;pieceImage: Image&lt;br&gt;board; Board&lt;br&gt;#isFirstMove: boolean&lt;br&gt;piecesImage: BufferedImage&lt;br&gt;#piecesImageScale: int&lt;br&gt;&lt;/font&gt;" style="text;strokeColor=none;fillColor=none;align=left;verticalAlign=top;spacingLeft=4;spacingRight=4;overflow=hidden;rotatable=0;points=[[0,0.5],[1,0.5]];portConstraint=eastwest;whiteSpace=wrap;html=1;fontSize=13;" parent="LVGzZkpI44pS8CkY22WA-28" vertex="1">
          <mxGeometry y="26" width="350" height="215" as="geometry" />
        </mxCell>
        <mxCell id="LVGzZkpI44pS8CkY22WA-30" value="" style="line;strokeWidth=2;fillColor=none;align=left;verticalAlign=middle;spacingTop=-1;spacingLeft=3;spacingRight=3;rotatable=0;labelPosition=right;points=[];portConstraint=eastwest;strokeColor=inherit;shadow=1;" parent="LVGzZkpI44pS8CkY22WA-28" vertex="1">
          <mxGeometry y="241" width="350" height="8" as="geometry" />
        </mxCell>
        <mxCell id="LVGzZkpI44pS8CkY22WA-31" value="&lt;span style=&quot;font-size: 13px;&quot;&gt;+isValidMovement(int col, int row): boolean&lt;br&gt;+moveCollidesWithPiece(int col, int row): boolean&lt;br&gt;&lt;br&gt;&lt;/span&gt;" style="text;strokeColor=none;fillColor=none;align=left;verticalAlign=top;spacingLeft=4;spacingRight=4;overflow=hidden;rotatable=0;points=[[0,0.5],[1,0.5]];portConstraint=eastwest;whiteSpace=wrap;html=1;" parent="LVGzZkpI44pS8CkY22WA-28" vertex="1">
          <mxGeometry y="249" width="350" height="54" as="geometry" />
        </mxCell>
        <mxCell id="LVGzZkpI44pS8CkY22WA-34" value="&lt;font style=&quot;font-size: 13px;&quot;&gt;King&lt;/font&gt;" style="swimlane;fontStyle=1;align=center;verticalAlign=top;childLayout=stackLayout;horizontal=1;startSize=30;horizontalStack=0;resizeParent=1;resizeParentMax=0;resizeLast=0;collapsible=1;marginBottom=0;whiteSpace=wrap;html=1;fillColor=#009999;strokeColor=#009999;strokeWidth=2;glass=1;shadow=1;rounded=1;fontSize=13;" parent="WIyWlLk6GJQsqaUBKTNV-1" vertex="1">
          <mxGeometry x="140" y="-91" width="380" height="201" as="geometry">
            <mxRectangle x="-50" y="585" width="70" height="30" as="alternateBounds" />
          </mxGeometry>
        </mxCell>
        <mxCell id="LVGzZkpI44pS8CkY22WA-35" value="&lt;font style=&quot;font-size: 14px;&quot;&gt;checkScanner: Kingcheck&lt;br&gt;wKing: Pieces&lt;br&gt;bKing: Pieces&lt;br&gt;canKingEscape: boolean&lt;br&gt;canpiecesBlockCheck: boolean&lt;br&gt;&lt;/font&gt;" style="text;strokeColor=none;fillColor=none;align=left;verticalAlign=top;spacingLeft=4;spacingRight=4;overflow=hidden;rotatable=0;points=[[0,0.5],[1,0.5]];portConstraint=eastwest;whiteSpace=wrap;html=1;fontSize=13;" parent="LVGzZkpI44pS8CkY22WA-34" vertex="1">
          <mxGeometry y="30" width="380" height="94" as="geometry" />
        </mxCell>
        <mxCell id="LVGzZkpI44pS8CkY22WA-36" value="" style="line;strokeWidth=2;fillColor=none;align=left;verticalAlign=middle;spacingTop=-1;spacingLeft=3;spacingRight=3;rotatable=0;labelPosition=right;points=[];portConstraint=eastwest;strokeColor=inherit;shadow=1;" parent="LVGzZkpI44pS8CkY22WA-34" vertex="1">
          <mxGeometry y="124" width="380" height="8" as="geometry" />
        </mxCell>
        <mxCell id="LVGzZkpI44pS8CkY22WA-37" value="&lt;font style=&quot;&quot;&gt;&lt;span style=&quot;font-size: 14px;&quot;&gt;+isValidMovement&lt;/span&gt;&lt;span style=&quot;font-size: 14px; color: rgb(31, 35, 40); font-family: ui-monospace, SFMono-Regular, &amp;quot;SF Mono&amp;quot;, Menlo, Consolas, &amp;quot;Liberation Mono&amp;quot;, monospace;&quot;&gt;(&lt;/span&gt;&lt;span style=&quot;font-size: 14px; box-sizing: border-box; color: var(--color-prettylights-syntax-storage-modifier-import); font-family: ui-monospace, SFMono-Regular, &amp;quot;SF Mono&amp;quot;, Menlo, Consolas, &amp;quot;Liberation Mono&amp;quot;, monospace;&quot; class=&quot;pl-smi&quot;&gt;int&lt;/span&gt;&lt;span style=&quot;font-size: 14px; color: rgb(31, 35, 40); font-family: ui-monospace, SFMono-Regular, &amp;quot;SF Mono&amp;quot;, Menlo, Consolas, &amp;quot;Liberation Mono&amp;quot;, monospace;&quot;&gt; &lt;/span&gt;&lt;span style=&quot;font-size: 14px; box-sizing: border-box; color: rgb(31, 35, 40); font-family: ui-monospace, SFMono-Regular, &amp;quot;SF Mono&amp;quot;, Menlo, Consolas, &amp;quot;Liberation Mono&amp;quot;, monospace;&quot; class=&quot;pl-s1&quot;&gt;col&lt;/span&gt;&lt;span style=&quot;font-size: 14px; color: rgb(31, 35, 40); font-family: ui-monospace, SFMono-Regular, &amp;quot;SF Mono&amp;quot;, Menlo, Consolas, &amp;quot;Liberation Mono&amp;quot;, monospace;&quot;&gt;,&lt;/span&gt;&lt;span style=&quot;font-size: 14px; box-sizing: border-box; color: var(--color-prettylights-syntax-storage-modifier-import); font-family: ui-monospace, SFMono-Regular, &amp;quot;SF Mono&amp;quot;, Menlo, Consolas, &amp;quot;Liberation Mono&amp;quot;, monospace;&quot; class=&quot;pl-smi&quot;&gt;int&lt;/span&gt;&lt;span style=&quot;font-size: 14px; color: rgb(31, 35, 40); font-family: ui-monospace, SFMono-Regular, &amp;quot;SF Mono&amp;quot;, Menlo, Consolas, &amp;quot;Liberation Mono&amp;quot;, monospace;&quot;&gt; &lt;/span&gt;&lt;span style=&quot;font-size: 14px; box-sizing: border-box; color: rgb(31, 35, 40); font-family: ui-monospace, SFMono-Regular, &amp;quot;SF Mono&amp;quot;, Menlo, Consolas, &amp;quot;Liberation Mono&amp;quot;, monospace;&quot; class=&quot;pl-s1&quot;&gt;row&lt;/span&gt;&lt;span style=&quot;font-size: 14px;&quot;&gt;): boolean&lt;/span&gt;&lt;br&gt;&lt;font style=&quot;font-size: 14px;&quot;&gt;&lt;span style=&quot;box-sizing: border-box; color: var(--color-prettylights-syntax-entity); font-family: ui-monospace, SFMono-Regular, &amp;quot;SF Mono&amp;quot;, Menlo, Consolas, &amp;quot;Liberation Mono&amp;quot;, monospace;&quot; class=&quot;pl-en&quot;&gt;+canCastle&lt;/span&gt;&lt;span style=&quot;color: rgb(31, 35, 40); font-family: ui-monospace, SFMono-Regular, &amp;quot;SF Mono&amp;quot;, Menlo, Consolas, &amp;quot;Liberation Mono&amp;quot;, monospace;&quot;&gt;(&lt;/span&gt;&lt;span style=&quot;box-sizing: border-box; color: var(--color-prettylights-syntax-storage-modifier-import); font-family: ui-monospace, SFMono-Regular, &amp;quot;SF Mono&amp;quot;, Menlo, Consolas, &amp;quot;Liberation Mono&amp;quot;, monospace;&quot; class=&quot;pl-smi&quot;&gt;int&lt;/span&gt;&lt;span style=&quot;color: rgb(31, 35, 40); font-family: ui-monospace, SFMono-Regular, &amp;quot;SF Mono&amp;quot;, Menlo, Consolas, &amp;quot;Liberation Mono&amp;quot;, monospace;&quot;&gt; &lt;/span&gt;&lt;span style=&quot;box-sizing: border-box; color: rgb(31, 35, 40); font-family: ui-monospace, SFMono-Regular, &amp;quot;SF Mono&amp;quot;, Menlo, Consolas, &amp;quot;Liberation Mono&amp;quot;, monospace;&quot; class=&quot;pl-s1&quot;&gt;col&lt;/span&gt;&lt;span style=&quot;color: rgb(31, 35, 40); font-family: ui-monospace, SFMono-Regular, &amp;quot;SF Mono&amp;quot;, Menlo, Consolas, &amp;quot;Liberation Mono&amp;quot;, monospace;&quot;&gt;,&lt;/span&gt;&lt;span style=&quot;box-sizing: border-box; color: var(--color-prettylights-syntax-storage-modifier-import); font-family: ui-monospace, SFMono-Regular, &amp;quot;SF Mono&amp;quot;, Menlo, Consolas, &amp;quot;Liberation Mono&amp;quot;, monospace;&quot; class=&quot;pl-smi&quot;&gt;int&lt;/span&gt;&lt;span style=&quot;color: rgb(31, 35, 40); font-family: ui-monospace, SFMono-Regular, &amp;quot;SF Mono&amp;quot;, Menlo, Consolas, &amp;quot;Liberation Mono&amp;quot;, monospace;&quot;&gt; &lt;/span&gt;&lt;span style=&quot;box-sizing: border-box; color: rgb(31, 35, 40); font-family: ui-monospace, SFMono-Regular, &amp;quot;SF Mono&amp;quot;, Menlo, Consolas, &amp;quot;Liberation Mono&amp;quot;, monospace;&quot; class=&quot;pl-s1&quot;&gt;row&lt;/span&gt;&lt;span style=&quot;color: rgb(31, 35, 40); font-family: ui-monospace, SFMono-Regular, &amp;quot;SF Mono&amp;quot;, Menlo, Consolas, &amp;quot;Liberation Mono&amp;quot;, monospace;&quot;&gt;): boolean&lt;br&gt;&lt;/span&gt;&lt;/font&gt;&lt;span style=&quot;font-size: 14px; color: rgb(31, 35, 40); font-family: ui-monospace, SFMono-Regular, &amp;quot;SF Mono&amp;quot;, Menlo, Consolas, &amp;quot;Liberation Mono&amp;quot;, monospace;&quot;&gt;+hasEscapeMoves(): boolean&lt;br&gt;&lt;br&gt;&lt;/span&gt;&lt;/font&gt;" style="text;strokeColor=none;fillColor=none;align=left;verticalAlign=top;spacingLeft=4;spacingRight=4;overflow=hidden;rotatable=0;points=[[0,0.5],[1,0.5]];portConstraint=eastwest;whiteSpace=wrap;html=1;fontSize=13;" parent="LVGzZkpI44pS8CkY22WA-34" vertex="1">
          <mxGeometry y="132" width="380" height="69" as="geometry" />
        </mxCell>
        <mxCell id="LVGzZkpI44pS8CkY22WA-38" value="&lt;font style=&quot;font-size: 13px;&quot;&gt;Pawn&lt;/font&gt;" style="swimlane;fontStyle=1;align=center;verticalAlign=top;childLayout=stackLayout;horizontal=1;startSize=30;horizontalStack=0;resizeParent=1;resizeParentMax=0;resizeLast=0;collapsible=1;marginBottom=0;whiteSpace=wrap;html=1;fillColor=#009999;strokeColor=#009999;rounded=1;shadow=1;glass=1;swimlaneLine=0;strokeWidth=2;fontSize=13;" parent="WIyWlLk6GJQsqaUBKTNV-1" vertex="1">
          <mxGeometry x="542" y="-88" width="329" height="110" as="geometry" />
        </mxCell>
        <mxCell id="LVGzZkpI44pS8CkY22WA-40" value="" style="line;strokeWidth=2;fillColor=none;align=left;verticalAlign=middle;spacingTop=-1;spacingLeft=3;spacingRight=3;rotatable=0;labelPosition=right;points=[];portConstraint=eastwest;strokeColor=inherit;shadow=1;" parent="LVGzZkpI44pS8CkY22WA-38" vertex="1">
          <mxGeometry y="30" width="329" height="8" as="geometry" />
        </mxCell>
        <mxCell id="LVGzZkpI44pS8CkY22WA-41" value="&lt;font style=&quot;font-size: 13px;&quot;&gt;+isValidMovement&lt;span style=&quot;border-color: var(--border-color); font-size: 14px; color: rgb(31, 35, 40); font-family: ui-monospace, SFMono-Regular, &amp;quot;SF Mono&amp;quot;, Menlo, Consolas, &amp;quot;Liberation Mono&amp;quot;, monospace;&quot;&gt;(&lt;/span&gt;&lt;span style=&quot;border-color: var(--border-color); color: var(--color-prettylights-syntax-storage-modifier-import); font-size: 14px; box-sizing: border-box; font-family: ui-monospace, SFMono-Regular, &amp;quot;SF Mono&amp;quot;, Menlo, Consolas, &amp;quot;Liberation Mono&amp;quot;, monospace;&quot; class=&quot;pl-smi&quot;&gt;int&lt;/span&gt;&lt;span style=&quot;border-color: var(--border-color); font-size: 14px; color: rgb(31, 35, 40); font-family: ui-monospace, SFMono-Regular, &amp;quot;SF Mono&amp;quot;, Menlo, Consolas, &amp;quot;Liberation Mono&amp;quot;, monospace;&quot;&gt;&amp;nbsp;&lt;/span&gt;&lt;span style=&quot;border-color: var(--border-color); font-size: 14px; box-sizing: border-box; color: rgb(31, 35, 40); font-family: ui-monospace, SFMono-Regular, &amp;quot;SF Mono&amp;quot;, Menlo, Consolas, &amp;quot;Liberation Mono&amp;quot;, monospace;&quot; class=&quot;pl-s1&quot;&gt;col&lt;/span&gt;&lt;span style=&quot;border-color: var(--border-color); font-size: 14px; color: rgb(31, 35, 40); font-family: ui-monospace, SFMono-Regular, &amp;quot;SF Mono&amp;quot;, Menlo, Consolas, &amp;quot;Liberation Mono&amp;quot;, monospace;&quot;&gt;,&amp;nbsp;&lt;/span&gt;&lt;span style=&quot;border-color: var(--border-color); color: var(--color-prettylights-syntax-storage-modifier-import); font-size: 14px; box-sizing: border-box; font-family: ui-monospace, SFMono-Regular, &amp;quot;SF Mono&amp;quot;, Menlo, Consolas, &amp;quot;Liberation Mono&amp;quot;, monospace;&quot; class=&quot;pl-smi&quot;&gt;int&lt;/span&gt;&lt;span style=&quot;border-color: var(--border-color); font-size: 14px; color: rgb(31, 35, 40); font-family: ui-monospace, SFMono-Regular, &amp;quot;SF Mono&amp;quot;, Menlo, Consolas, &amp;quot;Liberation Mono&amp;quot;, monospace;&quot;&gt;&amp;nbsp;&lt;/span&gt;&lt;span style=&quot;border-color: var(--border-color); font-size: 14px; box-sizing: border-box; color: rgb(31, 35, 40); font-family: ui-monospace, SFMono-Regular, &amp;quot;SF Mono&amp;quot;, Menlo, Consolas, &amp;quot;Liberation Mono&amp;quot;, monospace;&quot; class=&quot;pl-s1&quot;&gt;row&lt;/span&gt;&lt;span style=&quot;border-color: var(--border-color); font-size: 14px; color: rgb(31, 35, 40); font-family: ui-monospace, SFMono-Regular, &amp;quot;SF Mono&amp;quot;, Menlo, Consolas, &amp;quot;Liberation Mono&amp;quot;, monospace;&quot;&gt;): boolean&lt;/span&gt;&lt;br&gt;&lt;/font&gt;" style="text;strokeColor=none;fillColor=none;align=left;verticalAlign=top;spacingLeft=4;spacingRight=4;overflow=hidden;rotatable=0;points=[[0,0.5],[1,0.5]];portConstraint=eastwest;whiteSpace=wrap;html=1;" parent="LVGzZkpI44pS8CkY22WA-38" vertex="1">
          <mxGeometry y="38" width="329" height="72" as="geometry" />
        </mxCell>
        <mxCell id="LVGzZkpI44pS8CkY22WA-51" value="" style="endArrow=diamondThin;endFill=1;endSize=24;html=1;rounded=0;strokeColor=#009999;strokeWidth=3;shadow=1;entryX=0.455;entryY=1.122;entryDx=0;entryDy=0;entryPerimeter=0;" parent="WIyWlLk6GJQsqaUBKTNV-1" edge="1">
          <mxGeometry width="160" relative="1" as="geometry">
            <mxPoint x="290" y="-460" as="sourcePoint" />
            <mxPoint x="290.0999999999999" y="-559.9960000000001" as="targetPoint" />
            <Array as="points" />
          </mxGeometry>
        </mxCell>
        <mxCell id="LVGzZkpI44pS8CkY22WA-53" value="" style="endArrow=diamondThin;endFill=1;endSize=24;html=1;rounded=0;strokeWidth=3;strokeColor=#009999;shadow=1;exitX=-0.011;exitY=0.38;exitDx=0;exitDy=0;exitPerimeter=0;" parent="WIyWlLk6GJQsqaUBKTNV-1" source="LVGzZkpI44pS8CkY22WA-19" edge="1">
          <mxGeometry width="160" relative="1" as="geometry">
            <mxPoint x="930" y="-723" as="sourcePoint" />
            <mxPoint x="787" y="-740" as="targetPoint" />
          </mxGeometry>
        </mxCell>
        <mxCell id="LVGzZkpI44pS8CkY22WA-59" value="" style="endArrow=diamondThin;endFill=1;endSize=24;html=1;rounded=0;strokeColor=#009999;strokeWidth=3;shadow=1;entryX=0.5;entryY=0;entryDx=0;entryDy=0;exitX=0.477;exitY=1.026;exitDx=0;exitDy=0;exitPerimeter=0;" parent="WIyWlLk6GJQsqaUBKTNV-1" source="LVGzZkpI44pS8CkY22WA-27" target="LVGzZkpI44pS8CkY22WA-28" edge="1">
          <mxGeometry width="160" relative="1" as="geometry">
            <mxPoint x="1282" y="-520" as="sourcePoint" />
            <mxPoint x="1455" y="-530" as="targetPoint" />
            <Array as="points">
              <mxPoint x="1644" y="-578" />
              <mxPoint x="1340" y="-578" />
              <mxPoint x="1143" y="-578" />
            </Array>
          </mxGeometry>
        </mxCell>
        <mxCell id="LVGzZkpI44pS8CkY22WA-60" value="&lt;font style=&quot;font-size: 13px;&quot;&gt;1...n&lt;/font&gt;" style="text;html=1;align=center;verticalAlign=middle;resizable=0;points=[];autosize=1;strokeColor=none;fillColor=none;" parent="WIyWlLk6GJQsqaUBKTNV-1" vertex="1">
          <mxGeometry x="1392" y="-611" width="50" height="30" as="geometry" />
        </mxCell>
        <mxCell id="LVGzZkpI44pS8CkY22WA-61" value="Extends" style="endArrow=block;endSize=16;endFill=0;html=1;rounded=0;strokeColor=#009999;strokeWidth=3;shadow=1;" parent="WIyWlLk6GJQsqaUBKTNV-1" edge="1">
          <mxGeometry width="160" relative="1" as="geometry">
            <mxPoint x="345" y="-91" as="sourcePoint" />
            <mxPoint x="1123" y="-186" as="targetPoint" />
            <Array as="points">
              <mxPoint x="345" y="-154" />
              <mxPoint x="893" y="-154" />
              <mxPoint x="1123" y="-154" />
            </Array>
          </mxGeometry>
        </mxCell>
        <mxCell id="LVGzZkpI44pS8CkY22WA-63" value="" style="endArrow=none;html=1;rounded=0;strokeColor=#009999;strokeWidth=3;shadow=1;" parent="WIyWlLk6GJQsqaUBKTNV-1" edge="1">
          <mxGeometry width="50" height="50" relative="1" as="geometry">
            <mxPoint x="1125" y="-88" as="sourcePoint" />
            <mxPoint x="723" y="-151" as="targetPoint" />
            <Array as="points">
              <mxPoint x="1125" y="-151" />
            </Array>
          </mxGeometry>
        </mxCell>
        <mxCell id="LVGzZkpI44pS8CkY22WA-64" value="" style="endArrow=none;html=1;rounded=0;strokeColor=#009999;shadow=1;strokeWidth=3;" parent="WIyWlLk6GJQsqaUBKTNV-1" edge="1">
          <mxGeometry width="50" height="50" relative="1" as="geometry">
            <mxPoint x="1358" y="-64" as="sourcePoint" />
            <mxPoint x="1123" y="-154" as="targetPoint" />
            <Array as="points">
              <mxPoint x="1358" y="-154" />
              <mxPoint x="1318" y="-154" />
              <mxPoint x="1293" y="-154" />
            </Array>
          </mxGeometry>
        </mxCell>
        <mxCell id="LVGzZkpI44pS8CkY22WA-65" value="" style="endArrow=none;html=1;rounded=0;strokeColor=#009999;strokeWidth=3;shadow=1;exitX=0.429;exitY=0.073;exitDx=0;exitDy=0;exitPerimeter=0;" parent="WIyWlLk6GJQsqaUBKTNV-1" edge="1">
          <mxGeometry width="50" height="50" relative="1" as="geometry">
            <mxPoint x="1679.9539999999997" y="-74.97000000000003" as="sourcePoint" />
            <mxPoint x="1355" y="-155" as="targetPoint" />
            <Array as="points">
              <mxPoint x="1680" y="-155" />
            </Array>
          </mxGeometry>
        </mxCell>
        <mxCell id="LVGzZkpI44pS8CkY22WA-66" value="" style="endArrow=none;html=1;rounded=0;strokeColor=#009999;strokeWidth=3;shadow=1;" parent="WIyWlLk6GJQsqaUBKTNV-1" edge="1">
          <mxGeometry width="50" height="50" relative="1" as="geometry">
            <mxPoint x="1923" y="-81" as="sourcePoint" />
            <mxPoint x="1682" y="-155" as="targetPoint" />
            <Array as="points">
              <mxPoint x="1923" y="-155" />
            </Array>
          </mxGeometry>
        </mxCell>
        <mxCell id="bgD4bhp47jV61R5AHMAy-8" value="&lt;font style=&quot;font-size: 13px;&quot;&gt;KingCheck&lt;/font&gt;" style="swimlane;fontStyle=1;align=center;verticalAlign=top;childLayout=stackLayout;horizontal=1;startSize=26;horizontalStack=0;resizeParent=1;resizeParentMax=0;resizeLast=0;collapsible=1;marginBottom=0;whiteSpace=wrap;html=1;fillColor=#009999;strokeColor=#009999;strokeWidth=2;glass=1;swimlaneLine=0;rounded=1;shadow=1;fontSize=13;" vertex="1" parent="WIyWlLk6GJQsqaUBKTNV-1">
          <mxGeometry x="1827" y="-675" width="427" height="497" as="geometry">
            <mxRectangle x="270" y="190" width="70" height="30" as="alternateBounds" />
          </mxGeometry>
        </mxCell>
        <mxCell id="bgD4bhp47jV61R5AHMAy-9" value="&lt;font style=&quot;font-size: 14px;&quot;&gt;board: Board&lt;br&gt;king: Pieces&lt;br&gt;kingCol: int&lt;br&gt;kingRow: int&lt;br&gt;&lt;/font&gt;" style="text;strokeColor=none;fillColor=none;align=left;verticalAlign=top;spacingLeft=4;spacingRight=4;overflow=hidden;rotatable=0;points=[[0,0.5],[1,0.5]];portConstraint=eastwest;whiteSpace=wrap;html=1;fontSize=13;" vertex="1" parent="bgD4bhp47jV61R5AHMAy-8">
          <mxGeometry y="26" width="427" height="81" as="geometry" />
        </mxCell>
        <mxCell id="bgD4bhp47jV61R5AHMAy-10" value="" style="line;strokeWidth=2;fillColor=none;align=left;verticalAlign=middle;spacingTop=-1;spacingLeft=3;spacingRight=3;rotatable=0;labelPosition=right;points=[];portConstraint=eastwest;strokeColor=inherit;shadow=1;" vertex="1" parent="bgD4bhp47jV61R5AHMAy-8">
          <mxGeometry y="107" width="427" height="8" as="geometry" />
        </mxCell>
        <mxCell id="bgD4bhp47jV61R5AHMAy-11" value="&lt;font style=&quot;&quot;&gt;&lt;font style=&quot;font-size: 14px;&quot;&gt;+isKingChecked(Move move): boolean&lt;br&gt;-hitByBishopNewMove(Pieces king, int kingCol, int kingRow): boolean&lt;br&gt;-checkBishopNewMove(Pieces piece, Pieces king): boolean&lt;br&gt;-hitByRook(int col, int row, Pieces king, int kingCol, int kingRow, int colVal, int rowVal): boolean&lt;br&gt;&lt;span style=&quot;box-sizing: border-box; color: var(--color-prettylights-syntax-entity); font-family: ui-monospace, SFMono-Regular, &amp;quot;SF Mono&amp;quot;, Menlo, Consolas, &amp;quot;Liberation Mono&amp;quot;, monospace;&quot; class=&quot;pl-en&quot;&gt;-hitByBishop&lt;/span&gt;&lt;span style=&quot;color: rgb(31, 35, 40); font-family: ui-monospace, SFMono-Regular, &amp;quot;SF Mono&amp;quot;, Menlo, Consolas, &amp;quot;Liberation Mono&amp;quot;, monospace;&quot;&gt;(&lt;/span&gt;&lt;span style=&quot;box-sizing: border-box; color: var(--color-prettylights-syntax-storage-modifier-import); font-family: ui-monospace, SFMono-Regular, &amp;quot;SF Mono&amp;quot;, Menlo, Consolas, &amp;quot;Liberation Mono&amp;quot;, monospace;&quot; class=&quot;pl-smi&quot;&gt;int&lt;/span&gt;&lt;span style=&quot;color: rgb(31, 35, 40); font-family: ui-monospace, SFMono-Regular, &amp;quot;SF Mono&amp;quot;, Menlo, Consolas, &amp;quot;Liberation Mono&amp;quot;, monospace;&quot;&gt; &lt;/span&gt;&lt;span style=&quot;box-sizing: border-box; color: rgb(31, 35, 40); font-family: ui-monospace, SFMono-Regular, &amp;quot;SF Mono&amp;quot;, Menlo, Consolas, &amp;quot;Liberation Mono&amp;quot;, monospace;&quot; class=&quot;pl-s1&quot;&gt;col&lt;/span&gt;&lt;span style=&quot;color: rgb(31, 35, 40); font-family: ui-monospace, SFMono-Regular, &amp;quot;SF Mono&amp;quot;, Menlo, Consolas, &amp;quot;Liberation Mono&amp;quot;, monospace;&quot;&gt;,&lt;/span&gt;&lt;span style=&quot;box-sizing: border-box; color: var(--color-prettylights-syntax-storage-modifier-import); font-family: ui-monospace, SFMono-Regular, &amp;quot;SF Mono&amp;quot;, Menlo, Consolas, &amp;quot;Liberation Mono&amp;quot;, monospace;&quot; class=&quot;pl-smi&quot;&gt;int&lt;/span&gt;&lt;span style=&quot;color: rgb(31, 35, 40); font-family: ui-monospace, SFMono-Regular, &amp;quot;SF Mono&amp;quot;, Menlo, Consolas, &amp;quot;Liberation Mono&amp;quot;, monospace;&quot;&gt; &lt;/span&gt;&lt;span style=&quot;box-sizing: border-box; color: rgb(31, 35, 40); font-family: ui-monospace, SFMono-Regular, &amp;quot;SF Mono&amp;quot;, Menlo, Consolas, &amp;quot;Liberation Mono&amp;quot;, monospace;&quot; class=&quot;pl-s1&quot;&gt;row&lt;/span&gt;&lt;span style=&quot;color: rgb(31, 35, 40); font-family: ui-monospace, SFMono-Regular, &amp;quot;SF Mono&amp;quot;, Menlo, Consolas, &amp;quot;Liberation Mono&amp;quot;, monospace;&quot;&gt;,&lt;/span&gt;&lt;span style=&quot;box-sizing: border-box; color: var(--color-prettylights-syntax-storage-modifier-import); font-family: ui-monospace, SFMono-Regular, &amp;quot;SF Mono&amp;quot;, Menlo, Consolas, &amp;quot;Liberation Mono&amp;quot;, monospace;&quot; class=&quot;pl-smi&quot;&gt;Pieces&lt;/span&gt;&lt;span style=&quot;color: rgb(31, 35, 40); font-family: ui-monospace, SFMono-Regular, &amp;quot;SF Mono&amp;quot;, Menlo, Consolas, &amp;quot;Liberation Mono&amp;quot;, monospace;&quot;&gt; &lt;/span&gt;&lt;span style=&quot;box-sizing: border-box; color: rgb(31, 35, 40); font-family: ui-monospace, SFMono-Regular, &amp;quot;SF Mono&amp;quot;, Menlo, Consolas, &amp;quot;Liberation Mono&amp;quot;, monospace;&quot; class=&quot;pl-s1&quot;&gt;king&lt;/span&gt;&lt;span style=&quot;color: rgb(31, 35, 40); font-family: ui-monospace, SFMono-Regular, &amp;quot;SF Mono&amp;quot;, Menlo, Consolas, &amp;quot;Liberation Mono&amp;quot;, monospace;&quot;&gt;,&lt;/span&gt;&lt;span style=&quot;box-sizing: border-box; color: var(--color-prettylights-syntax-storage-modifier-import); font-family: ui-monospace, SFMono-Regular, &amp;quot;SF Mono&amp;quot;, Menlo, Consolas, &amp;quot;Liberation Mono&amp;quot;, monospace;&quot; class=&quot;pl-smi&quot;&gt;int&lt;/span&gt;&lt;span style=&quot;color: rgb(31, 35, 40); font-family: ui-monospace, SFMono-Regular, &amp;quot;SF Mono&amp;quot;, Menlo, Consolas, &amp;quot;Liberation Mono&amp;quot;, monospace;&quot;&gt; &lt;/span&gt;&lt;span style=&quot;box-sizing: border-box; color: rgb(31, 35, 40); font-family: ui-monospace, SFMono-Regular, &amp;quot;SF Mono&amp;quot;, Menlo, Consolas, &amp;quot;Liberation Mono&amp;quot;, monospace;&quot; class=&quot;pl-s1&quot;&gt;kingCol&lt;/span&gt;&lt;span style=&quot;color: rgb(31, 35, 40); font-family: ui-monospace, SFMono-Regular, &amp;quot;SF Mono&amp;quot;, Menlo, Consolas, &amp;quot;Liberation Mono&amp;quot;, monospace;&quot;&gt;,&lt;/span&gt;&lt;span style=&quot;box-sizing: border-box; color: var(--color-prettylights-syntax-storage-modifier-import); font-family: ui-monospace, SFMono-Regular, &amp;quot;SF Mono&amp;quot;, Menlo, Consolas, &amp;quot;Liberation Mono&amp;quot;, monospace;&quot; class=&quot;pl-smi&quot;&gt;int&lt;/span&gt;&lt;span style=&quot;color: rgb(31, 35, 40); font-family: ui-monospace, SFMono-Regular, &amp;quot;SF Mono&amp;quot;, Menlo, Consolas, &amp;quot;Liberation Mono&amp;quot;, monospace;&quot;&gt; &lt;/span&gt;&lt;span style=&quot;box-sizing: border-box; color: rgb(31, 35, 40); font-family: ui-monospace, SFMono-Regular, &amp;quot;SF Mono&amp;quot;, Menlo, Consolas, &amp;quot;Liberation Mono&amp;quot;, monospace;&quot; class=&quot;pl-s1&quot;&gt;kingRow&lt;/span&gt;&lt;span style=&quot;color: rgb(31, 35, 40); font-family: ui-monospace, SFMono-Regular, &amp;quot;SF Mono&amp;quot;, Menlo, Consolas, &amp;quot;Liberation Mono&amp;quot;, monospace;&quot;&gt;,&lt;/span&gt;&lt;span style=&quot;box-sizing: border-box; color: var(--color-prettylights-syntax-storage-modifier-import); font-family: ui-monospace, SFMono-Regular, &amp;quot;SF Mono&amp;quot;, Menlo, Consolas, &amp;quot;Liberation Mono&amp;quot;, monospace;&quot; class=&quot;pl-smi&quot;&gt;int&lt;/span&gt;&lt;span style=&quot;color: rgb(31, 35, 40); font-family: ui-monospace, SFMono-Regular, &amp;quot;SF Mono&amp;quot;, Menlo, Consolas, &amp;quot;Liberation Mono&amp;quot;, monospace;&quot;&gt; &lt;/span&gt;&lt;span style=&quot;box-sizing: border-box; color: rgb(31, 35, 40); font-family: ui-monospace, SFMono-Regular, &amp;quot;SF Mono&amp;quot;, Menlo, Consolas, &amp;quot;Liberation Mono&amp;quot;, monospace;&quot; class=&quot;pl-s1&quot;&gt;colVal&lt;/span&gt;&lt;span style=&quot;color: rgb(31, 35, 40); font-family: ui-monospace, SFMono-Regular, &amp;quot;SF Mono&amp;quot;, Menlo, Consolas, &amp;quot;Liberation Mono&amp;quot;, monospace;&quot;&gt;,&lt;/span&gt;&lt;span style=&quot;box-sizing: border-box; color: var(--color-prettylights-syntax-storage-modifier-import); font-family: ui-monospace, SFMono-Regular, &amp;quot;SF Mono&amp;quot;, Menlo, Consolas, &amp;quot;Liberation Mono&amp;quot;, monospace;&quot; class=&quot;pl-smi&quot;&gt;int&lt;/span&gt;&lt;span style=&quot;color: rgb(31, 35, 40); font-family: ui-monospace, SFMono-Regular, &amp;quot;SF Mono&amp;quot;, Menlo, Consolas, &amp;quot;Liberation Mono&amp;quot;, monospace;&quot;&gt; &lt;/span&gt;&lt;span style=&quot;box-sizing: border-box; color: rgb(31, 35, 40); font-family: ui-monospace, SFMono-Regular, &amp;quot;SF Mono&amp;quot;, Menlo, Consolas, &amp;quot;Liberation Mono&amp;quot;, monospace;&quot; class=&quot;pl-s1&quot;&gt;rowVal&lt;/span&gt;&lt;span style=&quot;color: rgb(31, 35, 40); font-family: ui-monospace, SFMono-Regular, &amp;quot;SF Mono&amp;quot;, Menlo, Consolas, &amp;quot;Liberation Mono&amp;quot;, monospace;&quot;&gt;): boolean&lt;br&gt;&lt;/span&gt;&lt;/font&gt;&lt;font style=&quot;&quot;&gt;&lt;span style=&quot;font-size: 14px;&quot;&gt;-hitBy&lt;/span&gt;&lt;span style=&quot;font-size: 14px; color: rgb(31, 35, 40); font-family: ui-monospace, SFMono-Regular, &amp;quot;SF Mono&amp;quot;, Menlo, Consolas, &amp;quot;Liberation Mono&amp;quot;, monospace;&quot;&gt;ََ&lt;/span&gt;&lt;span style=&quot;font-size: 14px; box-sizing: border-box; color: var(--color-prettylights-syntax-entity); font-family: ui-monospace, SFMono-Regular, &amp;quot;SF Mono&amp;quot;, Menlo, Consolas, &amp;quot;Liberation Mono&amp;quot;, monospace;&quot; class=&quot;pl-en&quot;&gt;Queen&lt;/span&gt;&lt;span style=&quot;font-size: 14px; color: rgb(31, 35, 40); font-family: ui-monospace, SFMono-Regular, &amp;quot;SF Mono&amp;quot;, Menlo, Consolas, &amp;quot;Liberation Mono&amp;quot;, monospace;&quot;&gt;(&lt;/span&gt;&lt;span style=&quot;font-size: 14px; box-sizing: border-box; color: var(--color-prettylights-syntax-storage-modifier-import); font-family: ui-monospace, SFMono-Regular, &amp;quot;SF Mono&amp;quot;, Menlo, Consolas, &amp;quot;Liberation Mono&amp;quot;, monospace;&quot; class=&quot;pl-smi&quot;&gt;int&lt;/span&gt;&lt;span style=&quot;font-size: 14px; color: rgb(31, 35, 40); font-family: ui-monospace, SFMono-Regular, &amp;quot;SF Mono&amp;quot;, Menlo, Consolas, &amp;quot;Liberation Mono&amp;quot;, monospace;&quot;&gt; &lt;/span&gt;&lt;span style=&quot;font-size: 14px; box-sizing: border-box; color: rgb(31, 35, 40); font-family: ui-monospace, SFMono-Regular, &amp;quot;SF Mono&amp;quot;, Menlo, Consolas, &amp;quot;Liberation Mono&amp;quot;, monospace;&quot; class=&quot;pl-s1&quot;&gt;col&lt;/span&gt;&lt;span style=&quot;font-size: 14px; color: rgb(31, 35, 40); font-family: ui-monospace, SFMono-Regular, &amp;quot;SF Mono&amp;quot;, Menlo, Consolas, &amp;quot;Liberation Mono&amp;quot;, monospace;&quot;&gt;,&lt;/span&gt;&lt;span style=&quot;font-size: 14px; box-sizing: border-box; color: var(--color-prettylights-syntax-storage-modifier-import); font-family: ui-monospace, SFMono-Regular, &amp;quot;SF Mono&amp;quot;, Menlo, Consolas, &amp;quot;Liberation Mono&amp;quot;, monospace;&quot; class=&quot;pl-smi&quot;&gt;int&lt;/span&gt;&lt;span style=&quot;font-size: 14px; color: rgb(31, 35, 40); font-family: ui-monospace, SFMono-Regular, &amp;quot;SF Mono&amp;quot;, Menlo, Consolas, &amp;quot;Liberation Mono&amp;quot;, monospace;&quot;&gt; &lt;/span&gt;&lt;span style=&quot;font-size: 14px; box-sizing: border-box; color: rgb(31, 35, 40); font-family: ui-monospace, SFMono-Regular, &amp;quot;SF Mono&amp;quot;, Menlo, Consolas, &amp;quot;Liberation Mono&amp;quot;, monospace;&quot; class=&quot;pl-s1&quot;&gt;row&lt;/span&gt;&lt;span style=&quot;font-size: 14px; color: rgb(31, 35, 40); font-family: ui-monospace, SFMono-Regular, &amp;quot;SF Mono&amp;quot;, Menlo, Consolas, &amp;quot;Liberation Mono&amp;quot;, monospace;&quot;&gt;,&lt;/span&gt;&lt;span style=&quot;font-size: 14px; box-sizing: border-box; color: var(--color-prettylights-syntax-storage-modifier-import); font-family: ui-monospace, SFMono-Regular, &amp;quot;SF Mono&amp;quot;, Menlo, Consolas, &amp;quot;Liberation Mono&amp;quot;, monospace;&quot; class=&quot;pl-smi&quot;&gt;Pieces&lt;/span&gt;&lt;span style=&quot;font-size: 14px; color: rgb(31, 35, 40); font-family: ui-monospace, SFMono-Regular, &amp;quot;SF Mono&amp;quot;, Menlo, Consolas, &amp;quot;Liberation Mono&amp;quot;, monospace;&quot;&gt; &lt;/span&gt;&lt;span style=&quot;font-size: 14px; box-sizing: border-box; color: rgb(31, 35, 40); font-family: ui-monospace, SFMono-Regular, &amp;quot;SF Mono&amp;quot;, Menlo, Consolas, &amp;quot;Liberation Mono&amp;quot;, monospace;&quot; class=&quot;pl-s1&quot;&gt;king&lt;/span&gt;&lt;span style=&quot;font-size: 14px; color: rgb(31, 35, 40); font-family: ui-monospace, SFMono-Regular, &amp;quot;SF Mono&amp;quot;, Menlo, Consolas, &amp;quot;Liberation Mono&amp;quot;, monospace;&quot;&gt;,&lt;/span&gt;&lt;span style=&quot;font-size: 14px; box-sizing: border-box; color: var(--color-prettylights-syntax-storage-modifier-import); font-family: ui-monospace, SFMono-Regular, &amp;quot;SF Mono&amp;quot;, Menlo, Consolas, &amp;quot;Liberation Mono&amp;quot;, monospace;&quot; class=&quot;pl-smi&quot;&gt;int&lt;/span&gt;&lt;span style=&quot;font-size: 14px; color: rgb(31, 35, 40); font-family: ui-monospace, SFMono-Regular, &amp;quot;SF Mono&amp;quot;, Menlo, Consolas, &amp;quot;Liberation Mono&amp;quot;, monospace;&quot;&gt; &lt;/span&gt;&lt;span style=&quot;font-size: 14px; box-sizing: border-box; color: rgb(31, 35, 40); font-family: ui-monospace, SFMono-Regular, &amp;quot;SF Mono&amp;quot;, Menlo, Consolas, &amp;quot;Liberation Mono&amp;quot;, monospace;&quot; class=&quot;pl-s1&quot;&gt;kingCol&lt;/span&gt;&lt;span style=&quot;font-size: 14px; color: rgb(31, 35, 40); font-family: ui-monospace, SFMono-Regular, &amp;quot;SF Mono&amp;quot;, Menlo, Consolas, &amp;quot;Liberation Mono&amp;quot;, monospace;&quot;&gt;,&lt;/span&gt;&lt;span style=&quot;font-size: 14px; box-sizing: border-box; color: var(--color-prettylights-syntax-storage-modifier-import); font-family: ui-monospace, SFMono-Regular, &amp;quot;SF Mono&amp;quot;, Menlo, Consolas, &amp;quot;Liberation Mono&amp;quot;, monospace;&quot; class=&quot;pl-smi&quot;&gt;int&lt;/span&gt;&lt;span style=&quot;font-size: 14px; color: rgb(31, 35, 40); font-family: ui-monospace, SFMono-Regular, &amp;quot;SF Mono&amp;quot;, Menlo, Consolas, &amp;quot;Liberation Mono&amp;quot;, monospace;&quot;&gt; &lt;/span&gt;&lt;span style=&quot;font-size: 14px; box-sizing: border-box; color: rgb(31, 35, 40); font-family: ui-monospace, SFMono-Regular, &amp;quot;SF Mono&amp;quot;, Menlo, Consolas, &amp;quot;Liberation Mono&amp;quot;, monospace;&quot; class=&quot;pl-s1&quot;&gt;kingRow&lt;/span&gt;&lt;span style=&quot;font-size: 14px; color: rgb(31, 35, 40); font-family: ui-monospace, SFMono-Regular, &amp;quot;SF Mono&amp;quot;, Menlo, Consolas, &amp;quot;Liberation Mono&amp;quot;, monospace;&quot;&gt;,&lt;/span&gt;&lt;span style=&quot;font-size: 14px; box-sizing: border-box; color: var(--color-prettylights-syntax-storage-modifier-import); font-family: ui-monospace, SFMono-Regular, &amp;quot;SF Mono&amp;quot;, Menlo, Consolas, &amp;quot;Liberation Mono&amp;quot;, monospace;&quot; class=&quot;pl-smi&quot;&gt;int&lt;/span&gt;&lt;span style=&quot;font-size: 14px; color: rgb(31, 35, 40); font-family: ui-monospace, SFMono-Regular, &amp;quot;SF Mono&amp;quot;, Menlo, Consolas, &amp;quot;Liberation Mono&amp;quot;, monospace;&quot;&gt; &lt;/span&gt;&lt;span style=&quot;font-size: 14px; box-sizing: border-box; color: rgb(31, 35, 40); font-family: ui-monospace, SFMono-Regular, &amp;quot;SF Mono&amp;quot;, Menlo, Consolas, &amp;quot;Liberation Mono&amp;quot;, monospace;&quot; class=&quot;pl-s1&quot;&gt;colVal&lt;/span&gt;&lt;span style=&quot;font-size: 14px; color: rgb(31, 35, 40); font-family: ui-monospace, SFMono-Regular, &amp;quot;SF Mono&amp;quot;, Menlo, Consolas, &amp;quot;Liberation Mono&amp;quot;, monospace;&quot;&gt;,&lt;/span&gt;&lt;span style=&quot;font-size: 14px; box-sizing: border-box; color: var(--color-prettylights-syntax-storage-modifier-import); font-family: ui-monospace, SFMono-Regular, &amp;quot;SF Mono&amp;quot;, Menlo, Consolas, &amp;quot;Liberation Mono&amp;quot;, monospace;&quot; class=&quot;pl-smi&quot;&gt;int&lt;/span&gt;&lt;span style=&quot;font-size: 14px; color: rgb(31, 35, 40); font-family: ui-monospace, SFMono-Regular, &amp;quot;SF Mono&amp;quot;, Menlo, Consolas, &amp;quot;Liberation Mono&amp;quot;, monospace;&quot;&gt; &lt;/span&gt;&lt;span style=&quot;font-size: 14px; box-sizing: border-box; color: rgb(31, 35, 40); font-family: ui-monospace, SFMono-Regular, &amp;quot;SF Mono&amp;quot;, Menlo, Consolas, &amp;quot;Liberation Mono&amp;quot;, monospace;&quot; class=&quot;pl-s1&quot;&gt;rowVal&lt;/span&gt;&lt;span style=&quot;font-size: 14px;&quot;&gt;): boolean&lt;/span&gt;&lt;br&gt;&lt;font style=&quot;font-size: 14px;&quot;&gt;-&lt;span style=&quot;box-sizing: border-box; color: var(--color-prettylights-syntax-entity); font-family: ui-monospace, SFMono-Regular, &amp;quot;SF Mono&amp;quot;, Menlo, Consolas, &amp;quot;Liberation Mono&amp;quot;, monospace;&quot; class=&quot;pl-en&quot;&gt;hitByKnight&lt;/span&gt;&lt;span style=&quot;color: rgb(31, 35, 40); font-family: ui-monospace, SFMono-Regular, &amp;quot;SF Mono&amp;quot;, Menlo, Consolas, &amp;quot;Liberation Mono&amp;quot;, monospace;&quot;&gt;(&lt;/span&gt;&lt;span style=&quot;box-sizing: border-box; color: var(--color-prettylights-syntax-storage-modifier-import); font-family: ui-monospace, SFMono-Regular, &amp;quot;SF Mono&amp;quot;, Menlo, Consolas, &amp;quot;Liberation Mono&amp;quot;, monospace;&quot; class=&quot;pl-smi&quot;&gt;int&lt;/span&gt;&lt;span style=&quot;color: rgb(31, 35, 40); font-family: ui-monospace, SFMono-Regular, &amp;quot;SF Mono&amp;quot;, Menlo, Consolas, &amp;quot;Liberation Mono&amp;quot;, monospace;&quot;&gt; &lt;/span&gt;&lt;span style=&quot;box-sizing: border-box; color: rgb(31, 35, 40); font-family: ui-monospace, SFMono-Regular, &amp;quot;SF Mono&amp;quot;, Menlo, Consolas, &amp;quot;Liberation Mono&amp;quot;, monospace;&quot; class=&quot;pl-s1&quot;&gt;col&lt;/span&gt;&lt;span style=&quot;color: rgb(31, 35, 40); font-family: ui-monospace, SFMono-Regular, &amp;quot;SF Mono&amp;quot;, Menlo, Consolas, &amp;quot;Liberation Mono&amp;quot;, monospace;&quot;&gt;,&lt;/span&gt;&lt;span style=&quot;box-sizing: border-box; color: var(--color-prettylights-syntax-storage-modifier-import); font-family: ui-monospace, SFMono-Regular, &amp;quot;SF Mono&amp;quot;, Menlo, Consolas, &amp;quot;Liberation Mono&amp;quot;, monospace;&quot; class=&quot;pl-smi&quot;&gt;int&lt;/span&gt;&lt;span style=&quot;color: rgb(31, 35, 40); font-family: ui-monospace, SFMono-Regular, &amp;quot;SF Mono&amp;quot;, Menlo, Consolas, &amp;quot;Liberation Mono&amp;quot;, monospace;&quot;&gt; &lt;/span&gt;&lt;span style=&quot;box-sizing: border-box; color: rgb(31, 35, 40); font-family: ui-monospace, SFMono-Regular, &amp;quot;SF Mono&amp;quot;, Menlo, Consolas, &amp;quot;Liberation Mono&amp;quot;, monospace;&quot; class=&quot;pl-s1&quot;&gt;row&lt;/span&gt;&lt;span style=&quot;color: rgb(31, 35, 40); font-family: ui-monospace, SFMono-Regular, &amp;quot;SF Mono&amp;quot;, Menlo, Consolas, &amp;quot;Liberation Mono&amp;quot;, monospace;&quot;&gt;,&lt;/span&gt;&lt;span style=&quot;box-sizing: border-box; color: var(--color-prettylights-syntax-storage-modifier-import); font-family: ui-monospace, SFMono-Regular, &amp;quot;SF Mono&amp;quot;, Menlo, Consolas, &amp;quot;Liberation Mono&amp;quot;, monospace;&quot; class=&quot;pl-smi&quot;&gt;Pieces&lt;/span&gt;&lt;span style=&quot;color: rgb(31, 35, 40); font-family: ui-monospace, SFMono-Regular, &amp;quot;SF Mono&amp;quot;, Menlo, Consolas, &amp;quot;Liberation Mono&amp;quot;, monospace;&quot;&gt; &lt;/span&gt;&lt;span style=&quot;box-sizing: border-box; color: rgb(31, 35, 40); font-family: ui-monospace, SFMono-Regular, &amp;quot;SF Mono&amp;quot;, Menlo, Consolas, &amp;quot;Liberation Mono&amp;quot;, monospace;&quot; class=&quot;pl-s1&quot;&gt;king&lt;/span&gt;&lt;span style=&quot;color: rgb(31, 35, 40); font-family: ui-monospace, SFMono-Regular, &amp;quot;SF Mono&amp;quot;, Menlo, Consolas, &amp;quot;Liberation Mono&amp;quot;, monospace;&quot;&gt;,&lt;/span&gt;&lt;span style=&quot;box-sizing: border-box; color: var(--color-prettylights-syntax-storage-modifier-import); font-family: ui-monospace, SFMono-Regular, &amp;quot;SF Mono&amp;quot;, Menlo, Consolas, &amp;quot;Liberation Mono&amp;quot;, monospace;&quot; class=&quot;pl-smi&quot;&gt;int&lt;/span&gt;&lt;span style=&quot;color: rgb(31, 35, 40); font-family: ui-monospace, SFMono-Regular, &amp;quot;SF Mono&amp;quot;, Menlo, Consolas, &amp;quot;Liberation Mono&amp;quot;, monospace;&quot;&gt; &lt;/span&gt;&lt;span style=&quot;box-sizing: border-box; color: rgb(31, 35, 40); font-family: ui-monospace, SFMono-Regular, &amp;quot;SF Mono&amp;quot;, Menlo, Consolas, &amp;quot;Liberation Mono&amp;quot;, monospace;&quot; class=&quot;pl-s1&quot;&gt;kingCol&lt;/span&gt;&lt;span style=&quot;color: rgb(31, 35, 40); font-family: ui-monospace, SFMono-Regular, &amp;quot;SF Mono&amp;quot;, Menlo, Consolas, &amp;quot;Liberation Mono&amp;quot;, monospace;&quot;&gt;,&lt;/span&gt;&lt;span style=&quot;box-sizing: border-box; color: var(--color-prettylights-syntax-storage-modifier-import); font-family: ui-monospace, SFMono-Regular, &amp;quot;SF Mono&amp;quot;, Menlo, Consolas, &amp;quot;Liberation Mono&amp;quot;, monospace;&quot; class=&quot;pl-smi&quot;&gt;int&lt;/span&gt;&lt;span style=&quot;color: rgb(31, 35, 40); font-family: ui-monospace, SFMono-Regular, &amp;quot;SF Mono&amp;quot;, Menlo, Consolas, &amp;quot;Liberation Mono&amp;quot;, monospace;&quot;&gt; &lt;/span&gt;&lt;span style=&quot;box-sizing: border-box; color: rgb(31, 35, 40); font-family: ui-monospace, SFMono-Regular, &amp;quot;SF Mono&amp;quot;, Menlo, Consolas, &amp;quot;Liberation Mono&amp;quot;, monospace;&quot; class=&quot;pl-s1&quot;&gt;kingRow&lt;/span&gt;&lt;span style=&quot;color: rgb(31, 35, 40); font-family: ui-monospace, SFMono-Regular, &amp;quot;SF Mono&amp;quot;, Menlo, Consolas, &amp;quot;Liberation Mono&amp;quot;, monospace;&quot;&gt;): boolean&lt;br&gt;&lt;/span&gt;&lt;/font&gt;&lt;font style=&quot;&quot;&gt;&lt;span style=&quot;font-size: 14px;&quot;&gt;-&lt;/span&gt;&lt;span style=&quot;font-size: 14px; box-sizing: border-box; color: var(--color-prettylights-syntax-entity); font-family: ui-monospace, SFMono-Regular, &amp;quot;SF Mono&amp;quot;, Menlo, Consolas, &amp;quot;Liberation Mono&amp;quot;, monospace;&quot; class=&quot;pl-en&quot;&gt;checkKinght&lt;/span&gt;&lt;span style=&quot;font-size: 14px; color: rgb(31, 35, 40); font-family: ui-monospace, SFMono-Regular, &amp;quot;SF Mono&amp;quot;, Menlo, Consolas, &amp;quot;Liberation Mono&amp;quot;, monospace;&quot;&gt;(&lt;/span&gt;&lt;span style=&quot;font-size: 14px; box-sizing: border-box; color: var(--color-prettylights-syntax-storage-modifier-import); font-family: ui-monospace, SFMono-Regular, &amp;quot;SF Mono&amp;quot;, Menlo, Consolas, &amp;quot;Liberation Mono&amp;quot;, monospace;&quot; class=&quot;pl-smi&quot;&gt;Pieces&lt;/span&gt;&lt;span style=&quot;font-size: 14px; color: rgb(31, 35, 40); font-family: ui-monospace, SFMono-Regular, &amp;quot;SF Mono&amp;quot;, Menlo, Consolas, &amp;quot;Liberation Mono&amp;quot;, monospace;&quot;&gt; &lt;/span&gt;&lt;span style=&quot;font-size: 14px; box-sizing: border-box; color: rgb(31, 35, 40); font-family: ui-monospace, SFMono-Regular, &amp;quot;SF Mono&amp;quot;, Menlo, Consolas, &amp;quot;Liberation Mono&amp;quot;, monospace;&quot; class=&quot;pl-s1&quot;&gt;piece&lt;/span&gt;&lt;span style=&quot;font-size: 14px; color: rgb(31, 35, 40); font-family: ui-monospace, SFMono-Regular, &amp;quot;SF Mono&amp;quot;, Menlo, Consolas, &amp;quot;Liberation Mono&amp;quot;, monospace;&quot;&gt;,&lt;/span&gt;&lt;span style=&quot;font-size: 14px; box-sizing: border-box; color: var(--color-prettylights-syntax-storage-modifier-import); font-family: ui-monospace, SFMono-Regular, &amp;quot;SF Mono&amp;quot;, Menlo, Consolas, &amp;quot;Liberation Mono&amp;quot;, monospace;&quot; class=&quot;pl-smi&quot;&gt;Pieces&lt;/span&gt;&lt;span style=&quot;font-size: 14px; color: rgb(31, 35, 40); font-family: ui-monospace, SFMono-Regular, &amp;quot;SF Mono&amp;quot;, Menlo, Consolas, &amp;quot;Liberation Mono&amp;quot;, monospace;&quot;&gt; &lt;/span&gt;&lt;span style=&quot;font-size: 14px; box-sizing: border-box; color: rgb(31, 35, 40); font-family: ui-monospace, SFMono-Regular, &amp;quot;SF Mono&amp;quot;, Menlo, Consolas, &amp;quot;Liberation Mono&amp;quot;, monospace;&quot; class=&quot;pl-s1&quot;&gt;king&lt;/span&gt;&lt;span style=&quot;font-size: 14px; color: rgb(31, 35, 40); font-family: ui-monospace, SFMono-Regular, &amp;quot;SF Mono&amp;quot;, Menlo, Consolas, &amp;quot;Liberation Mono&amp;quot;, monospace;&quot;&gt; ,&lt;/span&gt;&lt;span style=&quot;font-size: 14px; box-sizing: border-box; color: var(--color-prettylights-syntax-storage-modifier-import); font-family: ui-monospace, SFMono-Regular, &amp;quot;SF Mono&amp;quot;, Menlo, Consolas, &amp;quot;Liberation Mono&amp;quot;, monospace;&quot; class=&quot;pl-smi&quot;&gt;int&lt;/span&gt;&lt;span style=&quot;font-size: 14px; color: rgb(31, 35, 40); font-family: ui-monospace, SFMono-Regular, &amp;quot;SF Mono&amp;quot;, Menlo, Consolas, &amp;quot;Liberation Mono&amp;quot;, monospace;&quot;&gt; &lt;/span&gt;&lt;span style=&quot;font-size: 14px; box-sizing: border-box; color: rgb(31, 35, 40); font-family: ui-monospace, SFMono-Regular, &amp;quot;SF Mono&amp;quot;, Menlo, Consolas, &amp;quot;Liberation Mono&amp;quot;, monospace;&quot; class=&quot;pl-s1&quot;&gt;col&lt;/span&gt;&lt;span style=&quot;font-size: 14px; color: rgb(31, 35, 40); font-family: ui-monospace, SFMono-Regular, &amp;quot;SF Mono&amp;quot;, Menlo, Consolas, &amp;quot;Liberation Mono&amp;quot;, monospace;&quot;&gt;,&lt;/span&gt;&lt;span style=&quot;font-size: 14px; box-sizing: border-box; color: var(--color-prettylights-syntax-storage-modifier-import); font-family: ui-monospace, SFMono-Regular, &amp;quot;SF Mono&amp;quot;, Menlo, Consolas, &amp;quot;Liberation Mono&amp;quot;, monospace;&quot; class=&quot;pl-smi&quot;&gt;int&lt;/span&gt;&lt;span style=&quot;font-size: 14px; color: rgb(31, 35, 40); font-family: ui-monospace, SFMono-Regular, &amp;quot;SF Mono&amp;quot;, Menlo, Consolas, &amp;quot;Liberation Mono&amp;quot;, monospace;&quot;&gt; &lt;/span&gt;&lt;span style=&quot;font-size: 14px; box-sizing: border-box; color: rgb(31, 35, 40); font-family: ui-monospace, SFMono-Regular, &amp;quot;SF Mono&amp;quot;, Menlo, Consolas, &amp;quot;Liberation Mono&amp;quot;, monospace;&quot; class=&quot;pl-s1&quot;&gt;row&lt;/span&gt;&lt;span style=&quot;font-size: 14px;&quot;&gt;): boolean&lt;/span&gt;&lt;br&gt;&lt;font style=&quot;&quot;&gt;&lt;span style=&quot;font-size: 14px;&quot;&gt;-&lt;/span&gt;&lt;span style=&quot;font-size: 14px; box-sizing: border-box; color: var(--color-prettylights-syntax-entity); font-family: ui-monospace, SFMono-Regular, &amp;quot;SF Mono&amp;quot;, Menlo, Consolas, &amp;quot;Liberation Mono&amp;quot;, monospace;&quot; class=&quot;pl-en&quot;&gt;hitByKing&lt;/span&gt;&lt;span style=&quot;font-size: 14px; color: rgb(31, 35, 40); font-family: ui-monospace, SFMono-Regular, &amp;quot;SF Mono&amp;quot;, Menlo, Consolas, &amp;quot;Liberation Mono&amp;quot;, monospace;&quot;&gt;(&lt;/span&gt;&lt;span style=&quot;font-size: 14px; box-sizing: border-box; color: var(--color-prettylights-syntax-storage-modifier-import); font-family: ui-monospace, SFMono-Regular, &amp;quot;SF Mono&amp;quot;, Menlo, Consolas, &amp;quot;Liberation Mono&amp;quot;, monospace;&quot; class=&quot;pl-smi&quot;&gt;Pieces&lt;/span&gt;&lt;span style=&quot;font-size: 14px; color: rgb(31, 35, 40); font-family: ui-monospace, SFMono-Regular, &amp;quot;SF Mono&amp;quot;, Menlo, Consolas, &amp;quot;Liberation Mono&amp;quot;, monospace;&quot;&gt; &lt;/span&gt;&lt;span style=&quot;font-size: 14px; box-sizing: border-box; color: rgb(31, 35, 40); font-family: ui-monospace, SFMono-Regular, &amp;quot;SF Mono&amp;quot;, Menlo, Consolas, &amp;quot;Liberation Mono&amp;quot;, monospace;&quot; class=&quot;pl-s1&quot;&gt;king&lt;/span&gt;&lt;span style=&quot;font-size: 14px; color: rgb(31, 35, 40); font-family: ui-monospace, SFMono-Regular, &amp;quot;SF Mono&amp;quot;, Menlo, Consolas, &amp;quot;Liberation Mono&amp;quot;, monospace;&quot;&gt; , &lt;/span&gt;&lt;span style=&quot;font-size: 14px; box-sizing: border-box; color: var(--color-prettylights-syntax-storage-modifier-import); font-family: ui-monospace, SFMono-Regular, &amp;quot;SF Mono&amp;quot;, Menlo, Consolas, &amp;quot;Liberation Mono&amp;quot;, monospace;&quot; class=&quot;pl-smi&quot;&gt;int&lt;/span&gt;&lt;span style=&quot;font-size: 14px; color: rgb(31, 35, 40); font-family: ui-monospace, SFMono-Regular, &amp;quot;SF Mono&amp;quot;, Menlo, Consolas, &amp;quot;Liberation Mono&amp;quot;, monospace;&quot;&gt; &lt;/span&gt;&lt;span style=&quot;font-size: 14px; box-sizing: border-box; color: rgb(31, 35, 40); font-family: ui-monospace, SFMono-Regular, &amp;quot;SF Mono&amp;quot;, Menlo, Consolas, &amp;quot;Liberation Mono&amp;quot;, monospace;&quot; class=&quot;pl-s1&quot;&gt;kingCol&lt;/span&gt;&lt;span style=&quot;font-size: 14px; color: rgb(31, 35, 40); font-family: ui-monospace, SFMono-Regular, &amp;quot;SF Mono&amp;quot;, Menlo, Consolas, &amp;quot;Liberation Mono&amp;quot;, monospace;&quot;&gt;  ,&lt;/span&gt;&lt;span style=&quot;font-size: 14px; box-sizing: border-box; color: var(--color-prettylights-syntax-storage-modifier-import); font-family: ui-monospace, SFMono-Regular, &amp;quot;SF Mono&amp;quot;, Menlo, Consolas, &amp;quot;Liberation Mono&amp;quot;, monospace;&quot; class=&quot;pl-smi&quot;&gt;int&lt;/span&gt;&lt;span style=&quot;font-size: 14px; color: rgb(31, 35, 40); font-family: ui-monospace, SFMono-Regular, &amp;quot;SF Mono&amp;quot;, Menlo, Consolas, &amp;quot;Liberation Mono&amp;quot;, monospace;&quot;&gt; &lt;/span&gt;&lt;span style=&quot;font-size: 14px; box-sizing: border-box; color: rgb(31, 35, 40); font-family: ui-monospace, SFMono-Regular, &amp;quot;SF Mono&amp;quot;, Menlo, Consolas, &amp;quot;Liberation Mono&amp;quot;, monospace;&quot; class=&quot;pl-s1&quot;&gt;kingRow&lt;/span&gt;&lt;span style=&quot;font-size: 14px;&quot;&gt;): boolean&lt;/span&gt;&lt;br&gt;&lt;font style=&quot;&quot;&gt;&lt;span style=&quot;font-size: 14px;&quot;&gt;-&lt;/span&gt;&lt;span style=&quot;font-size: 14px; box-sizing: border-box; color: var(--color-prettylights-syntax-entity); font-family: ui-monospace, SFMono-Regular, &amp;quot;SF Mono&amp;quot;, Menlo, Consolas, &amp;quot;Liberation Mono&amp;quot;, monospace;&quot; class=&quot;pl-en&quot;&gt;checkKing&lt;/span&gt;&lt;span style=&quot;font-size: 14px; color: rgb(31, 35, 40); font-family: ui-monospace, SFMono-Regular, &amp;quot;SF Mono&amp;quot;, Menlo, Consolas, &amp;quot;Liberation Mono&amp;quot;, monospace;&quot;&gt;(&lt;/span&gt;&lt;span style=&quot;font-size: 14px; box-sizing: border-box; color: var(--color-prettylights-syntax-storage-modifier-import); font-family: ui-monospace, SFMono-Regular, &amp;quot;SF Mono&amp;quot;, Menlo, Consolas, &amp;quot;Liberation Mono&amp;quot;, monospace;&quot; class=&quot;pl-smi&quot;&gt;Pieces&lt;/span&gt;&lt;span style=&quot;font-size: 14px; color: rgb(31, 35, 40); font-family: ui-monospace, SFMono-Regular, &amp;quot;SF Mono&amp;quot;, Menlo, Consolas, &amp;quot;Liberation Mono&amp;quot;, monospace;&quot;&gt; &lt;/span&gt;&lt;span style=&quot;font-size: 14px; box-sizing: border-box; color: rgb(31, 35, 40); font-family: ui-monospace, SFMono-Regular, &amp;quot;SF Mono&amp;quot;, Menlo, Consolas, &amp;quot;Liberation Mono&amp;quot;, monospace;&quot; class=&quot;pl-s1&quot;&gt;piece&lt;/span&gt;&lt;span style=&quot;font-size: 14px; color: rgb(31, 35, 40); font-family: ui-monospace, SFMono-Regular, &amp;quot;SF Mono&amp;quot;, Menlo, Consolas, &amp;quot;Liberation Mono&amp;quot;, monospace;&quot;&gt;,&lt;/span&gt;&lt;span style=&quot;font-size: 14px; box-sizing: border-box; color: var(--color-prettylights-syntax-storage-modifier-import); font-family: ui-monospace, SFMono-Regular, &amp;quot;SF Mono&amp;quot;, Menlo, Consolas, &amp;quot;Liberation Mono&amp;quot;, monospace;&quot; class=&quot;pl-smi&quot;&gt;Pieces&lt;/span&gt;&lt;span style=&quot;font-size: 14px; color: rgb(31, 35, 40); font-family: ui-monospace, SFMono-Regular, &amp;quot;SF Mono&amp;quot;, Menlo, Consolas, &amp;quot;Liberation Mono&amp;quot;, monospace;&quot;&gt; &lt;/span&gt;&lt;span style=&quot;font-size: 14px; box-sizing: border-box; color: rgb(31, 35, 40); font-family: ui-monospace, SFMono-Regular, &amp;quot;SF Mono&amp;quot;, Menlo, Consolas, &amp;quot;Liberation Mono&amp;quot;, monospace;&quot; class=&quot;pl-s1&quot;&gt;king&lt;/span&gt;&lt;span style=&quot;font-size: 14px; color: rgb(31, 35, 40); font-family: ui-monospace, SFMono-Regular, &amp;quot;SF Mono&amp;quot;, Menlo, Consolas, &amp;quot;Liberation Mono&amp;quot;, monospace;&quot;&gt; ): boolean&lt;br&gt;&lt;/span&gt;&lt;font style=&quot;&quot;&gt;&lt;span style=&quot;font-size: 14px;&quot;&gt;-&lt;/span&gt;&lt;span style=&quot;font-size: 14px; box-sizing: border-box; color: var(--color-prettylights-syntax-entity); font-family: ui-monospace, SFMono-Regular, &amp;quot;SF Mono&amp;quot;, Menlo, Consolas, &amp;quot;Liberation Mono&amp;quot;, monospace;&quot; class=&quot;pl-en&quot;&gt;hitByPawn&lt;/span&gt;&lt;span style=&quot;font-size: 14px; color: rgb(31, 35, 40); font-family: ui-monospace, SFMono-Regular, &amp;quot;SF Mono&amp;quot;, Menlo, Consolas, &amp;quot;Liberation Mono&amp;quot;, monospace;&quot;&gt;(&lt;/span&gt;&lt;span style=&quot;font-size: 14px; box-sizing: border-box; color: var(--color-prettylights-syntax-storage-modifier-import); font-family: ui-monospace, SFMono-Regular, &amp;quot;SF Mono&amp;quot;, Menlo, Consolas, &amp;quot;Liberation Mono&amp;quot;, monospace;&quot; class=&quot;pl-smi&quot;&gt;int&lt;/span&gt;&lt;span style=&quot;font-size: 14px; color: rgb(31, 35, 40); font-family: ui-monospace, SFMono-Regular, &amp;quot;SF Mono&amp;quot;, Menlo, Consolas, &amp;quot;Liberation Mono&amp;quot;, monospace;&quot;&gt; &lt;/span&gt;&lt;span style=&quot;font-size: 14px; box-sizing: border-box; color: rgb(31, 35, 40); font-family: ui-monospace, SFMono-Regular, &amp;quot;SF Mono&amp;quot;, Menlo, Consolas, &amp;quot;Liberation Mono&amp;quot;, monospace;&quot; class=&quot;pl-s1&quot;&gt;col&lt;/span&gt;&lt;span style=&quot;font-size: 14px; color: rgb(31, 35, 40); font-family: ui-monospace, SFMono-Regular, &amp;quot;SF Mono&amp;quot;, Menlo, Consolas, &amp;quot;Liberation Mono&amp;quot;, monospace;&quot;&gt;,&lt;/span&gt;&lt;span style=&quot;font-size: 14px; box-sizing: border-box; color: var(--color-prettylights-syntax-storage-modifier-import); font-family: ui-monospace, SFMono-Regular, &amp;quot;SF Mono&amp;quot;, Menlo, Consolas, &amp;quot;Liberation Mono&amp;quot;, monospace;&quot; class=&quot;pl-smi&quot;&gt;int&lt;/span&gt;&lt;span style=&quot;font-size: 14px; color: rgb(31, 35, 40); font-family: ui-monospace, SFMono-Regular, &amp;quot;SF Mono&amp;quot;, Menlo, Consolas, &amp;quot;Liberation Mono&amp;quot;, monospace;&quot;&gt; &lt;/span&gt;&lt;span style=&quot;font-size: 14px; box-sizing: border-box; color: rgb(31, 35, 40); font-family: ui-monospace, SFMono-Regular, &amp;quot;SF Mono&amp;quot;, Menlo, Consolas, &amp;quot;Liberation Mono&amp;quot;, monospace;&quot; class=&quot;pl-s1&quot;&gt;row&lt;/span&gt;&lt;span style=&quot;font-size: 14px; color: rgb(31, 35, 40); font-family: ui-monospace, SFMono-Regular, &amp;quot;SF Mono&amp;quot;, Menlo, Consolas, &amp;quot;Liberation Mono&amp;quot;, monospace;&quot;&gt;,&lt;/span&gt;&lt;span style=&quot;font-size: 14px; box-sizing: border-box; color: var(--color-prettylights-syntax-storage-modifier-import); font-family: ui-monospace, SFMono-Regular, &amp;quot;SF Mono&amp;quot;, Menlo, Consolas, &amp;quot;Liberation Mono&amp;quot;, monospace;&quot; class=&quot;pl-smi&quot;&gt;Pieces&lt;/span&gt;&lt;span style=&quot;font-size: 14px; color: rgb(31, 35, 40); font-family: ui-monospace, SFMono-Regular, &amp;quot;SF Mono&amp;quot;, Menlo, Consolas, &amp;quot;Liberation Mono&amp;quot;, monospace;&quot;&gt; &lt;/span&gt;&lt;span style=&quot;font-size: 14px; box-sizing: border-box; color: rgb(31, 35, 40); font-family: ui-monospace, SFMono-Regular, &amp;quot;SF Mono&amp;quot;, Menlo, Consolas, &amp;quot;Liberation Mono&amp;quot;, monospace;&quot; class=&quot;pl-s1&quot;&gt;king&lt;/span&gt;&lt;span style=&quot;font-size: 14px; color: rgb(31, 35, 40); font-family: ui-monospace, SFMono-Regular, &amp;quot;SF Mono&amp;quot;, Menlo, Consolas, &amp;quot;Liberation Mono&amp;quot;, monospace;&quot;&gt;,&lt;/span&gt;&lt;span style=&quot;font-size: 14px; box-sizing: border-box; color: var(--color-prettylights-syntax-storage-modifier-import); font-family: ui-monospace, SFMono-Regular, &amp;quot;SF Mono&amp;quot;, Menlo, Consolas, &amp;quot;Liberation Mono&amp;quot;, monospace;&quot; class=&quot;pl-smi&quot;&gt;int&lt;/span&gt;&lt;span style=&quot;font-size: 14px; color: rgb(31, 35, 40); font-family: ui-monospace, SFMono-Regular, &amp;quot;SF Mono&amp;quot;, Menlo, Consolas, &amp;quot;Liberation Mono&amp;quot;, monospace;&quot;&gt; &lt;/span&gt;&lt;span style=&quot;font-size: 14px; box-sizing: border-box; color: rgb(31, 35, 40); font-family: ui-monospace, SFMono-Regular, &amp;quot;SF Mono&amp;quot;, Menlo, Consolas, &amp;quot;Liberation Mono&amp;quot;, monospace;&quot; class=&quot;pl-s1&quot;&gt;kingCol&lt;/span&gt;&lt;span style=&quot;font-size: 14px; color: rgb(31, 35, 40); font-family: ui-monospace, SFMono-Regular, &amp;quot;SF Mono&amp;quot;, Menlo, Consolas, &amp;quot;Liberation Mono&amp;quot;, monospace;&quot;&gt;,&lt;/span&gt;&lt;span style=&quot;font-size: 14px; box-sizing: border-box; color: var(--color-prettylights-syntax-storage-modifier-import); font-family: ui-monospace, SFMono-Regular, &amp;quot;SF Mono&amp;quot;, Menlo, Consolas, &amp;quot;Liberation Mono&amp;quot;, monospace;&quot; class=&quot;pl-smi&quot;&gt;int&lt;/span&gt;&lt;span style=&quot;font-size: 14px; color: rgb(31, 35, 40); font-family: ui-monospace, SFMono-Regular, &amp;quot;SF Mono&amp;quot;, Menlo, Consolas, &amp;quot;Liberation Mono&amp;quot;, monospace;&quot;&gt; &lt;/span&gt;&lt;span style=&quot;font-size: 14px; box-sizing: border-box; color: rgb(31, 35, 40); font-family: ui-monospace, SFMono-Regular, &amp;quot;SF Mono&amp;quot;, Menlo, Consolas, &amp;quot;Liberation Mono&amp;quot;, monospace;&quot; class=&quot;pl-s1&quot;&gt;kingRow&lt;/span&gt;&lt;span style=&quot;font-size: 14px; color: rgb(31, 35, 40); font-family: ui-monospace, SFMono-Regular, &amp;quot;SF Mono&amp;quot;, Menlo, Consolas, &amp;quot;Liberation Mono&amp;quot;, monospace;&quot;&gt;): boolean&lt;br&gt;&lt;/span&gt;&lt;font style=&quot;font-size: 14px;&quot;&gt;-&lt;span style=&quot;box-sizing: border-box; color: var(--color-prettylights-syntax-entity); font-family: ui-monospace, SFMono-Regular, &amp;quot;SF Mono&amp;quot;, Menlo, Consolas, &amp;quot;Liberation Mono&amp;quot;, monospace;&quot; class=&quot;pl-en&quot;&gt;checkPawn&lt;/span&gt;&lt;span style=&quot;color: rgb(31, 35, 40); font-family: ui-monospace, SFMono-Regular, &amp;quot;SF Mono&amp;quot;, Menlo, Consolas, &amp;quot;Liberation Mono&amp;quot;, monospace;&quot;&gt;(&lt;/span&gt;&lt;span style=&quot;box-sizing: border-box; color: var(--color-prettylights-syntax-storage-modifier-import); font-family: ui-monospace, SFMono-Regular, &amp;quot;SF Mono&amp;quot;, Menlo, Consolas, &amp;quot;Liberation Mono&amp;quot;, monospace;&quot; class=&quot;pl-smi&quot;&gt;Pieces&lt;/span&gt;&lt;span style=&quot;color: rgb(31, 35, 40); font-family: ui-monospace, SFMono-Regular, &amp;quot;SF Mono&amp;quot;, Menlo, Consolas, &amp;quot;Liberation Mono&amp;quot;, monospace;&quot;&gt; &lt;/span&gt;&lt;span style=&quot;box-sizing: border-box; color: rgb(31, 35, 40); font-family: ui-monospace, SFMono-Regular, &amp;quot;SF Mono&amp;quot;, Menlo, Consolas, &amp;quot;Liberation Mono&amp;quot;, monospace;&quot; class=&quot;pl-s1&quot;&gt;piece&lt;/span&gt;&lt;span style=&quot;color: rgb(31, 35, 40); font-family: ui-monospace, SFMono-Regular, &amp;quot;SF Mono&amp;quot;, Menlo, Consolas, &amp;quot;Liberation Mono&amp;quot;, monospace;&quot;&gt;,&lt;/span&gt;&lt;span style=&quot;box-sizing: border-box; color: var(--color-prettylights-syntax-storage-modifier-import); font-family: ui-monospace, SFMono-Regular, &amp;quot;SF Mono&amp;quot;, Menlo, Consolas, &amp;quot;Liberation Mono&amp;quot;, monospace;&quot; class=&quot;pl-smi&quot;&gt;Pieces&lt;/span&gt;&lt;span style=&quot;color: rgb(31, 35, 40); font-family: ui-monospace, SFMono-Regular, &amp;quot;SF Mono&amp;quot;, Menlo, Consolas, &amp;quot;Liberation Mono&amp;quot;, monospace;&quot;&gt; &lt;/span&gt;&lt;span style=&quot;box-sizing: border-box; color: rgb(31, 35, 40); font-family: ui-monospace, SFMono-Regular, &amp;quot;SF Mono&amp;quot;, Menlo, Consolas, &amp;quot;Liberation Mono&amp;quot;, monospace;&quot; class=&quot;pl-s1&quot;&gt;king&lt;/span&gt;&lt;span style=&quot;color: rgb(31, 35, 40); font-family: ui-monospace, SFMono-Regular, &amp;quot;SF Mono&amp;quot;, Menlo, Consolas, &amp;quot;Liberation Mono&amp;quot;, monospace;&quot;&gt;,&lt;/span&gt;&lt;span style=&quot;box-sizing: border-box; color: var(--color-prettylights-syntax-storage-modifier-import); font-family: ui-monospace, SFMono-Regular, &amp;quot;SF Mono&amp;quot;, Menlo, Consolas, &amp;quot;Liberation Mono&amp;quot;, monospace;&quot; class=&quot;pl-smi&quot;&gt;int&lt;/span&gt;&lt;span style=&quot;color: rgb(31, 35, 40); font-family: ui-monospace, SFMono-Regular, &amp;quot;SF Mono&amp;quot;, Menlo, Consolas, &amp;quot;Liberation Mono&amp;quot;, monospace;&quot;&gt; &lt;/span&gt;&lt;span style=&quot;box-sizing: border-box; color: rgb(31, 35, 40); font-family: ui-monospace, SFMono-Regular, &amp;quot;SF Mono&amp;quot;, Menlo, Consolas, &amp;quot;Liberation Mono&amp;quot;, monospace;&quot; class=&quot;pl-s1&quot;&gt;col&lt;/span&gt;&lt;span style=&quot;color: rgb(31, 35, 40); font-family: ui-monospace, SFMono-Regular, &amp;quot;SF Mono&amp;quot;, Menlo, Consolas, &amp;quot;Liberation Mono&amp;quot;, monospace;&quot;&gt;,&lt;/span&gt;&lt;span style=&quot;box-sizing: border-box; color: var(--color-prettylights-syntax-storage-modifier-import); font-family: ui-monospace, SFMono-Regular, &amp;quot;SF Mono&amp;quot;, Menlo, Consolas, &amp;quot;Liberation Mono&amp;quot;, monospace;&quot; class=&quot;pl-smi&quot;&gt;int&lt;/span&gt;&lt;span style=&quot;color: rgb(31, 35, 40); font-family: ui-monospace, SFMono-Regular, &amp;quot;SF Mono&amp;quot;, Menlo, Consolas, &amp;quot;Liberation Mono&amp;quot;, monospace;&quot;&gt; &lt;/span&gt;&lt;span style=&quot;box-sizing: border-box; color: rgb(31, 35, 40); font-family: ui-monospace, SFMono-Regular, &amp;quot;SF Mono&amp;quot;, Menlo, Consolas, &amp;quot;Liberation Mono&amp;quot;, monospace;&quot; class=&quot;pl-s1&quot;&gt;row&lt;/span&gt;&lt;span style=&quot;color: rgb(31, 35, 40); font-family: ui-monospace, SFMono-Regular, &amp;quot;SF Mono&amp;quot;, Menlo, Consolas, &amp;quot;Liberation Mono&amp;quot;, monospace;&quot;&gt;): boolean&lt;/span&gt;&lt;span style=&quot;color: rgb(31, 35, 40); font-family: ui-monospace, SFMono-Regular, &amp;quot;SF Mono&amp;quot;, Menlo, Consolas, &amp;quot;Liberation Mono&amp;quot;, monospace;&quot;&gt;&lt;br&gt;&lt;/span&gt;&lt;/font&gt;&lt;/font&gt;&lt;/font&gt;&lt;/font&gt;&lt;span style=&quot;font-size: 14px; color: rgb(31, 35, 40); font-family: ui-monospace, SFMono-Regular, &amp;quot;SF Mono&amp;quot;, Menlo, Consolas, &amp;quot;Liberation Mono&amp;quot;, monospace;&quot;&gt;&lt;br&gt;&lt;br&gt;&lt;/span&gt;&lt;/font&gt;&lt;span style=&quot;font-size: 14px; color: rgb(31, 35, 40); font-family: ui-monospace, SFMono-Regular, &amp;quot;SF Mono&amp;quot;, Menlo, Consolas, &amp;quot;Liberation Mono&amp;quot;, monospace;&quot;&gt;&lt;br&gt;&lt;/span&gt;&lt;/font&gt;&lt;br&gt;&lt;/font&gt;" style="text;strokeColor=none;fillColor=none;align=left;verticalAlign=top;spacingLeft=4;spacingRight=4;overflow=hidden;rotatable=0;points=[[0,0.5],[1,0.5]];portConstraint=eastwest;whiteSpace=wrap;html=1;" vertex="1" parent="bgD4bhp47jV61R5AHMAy-8">
          <mxGeometry y="115" width="427" height="382" as="geometry" />
        </mxCell>
        <mxCell id="bgD4bhp47jV61R5AHMAy-14" value="&lt;font style=&quot;font-size: 13px;&quot;&gt;Bishop&lt;/font&gt;" style="swimlane;fontStyle=1;align=center;verticalAlign=top;childLayout=stackLayout;horizontal=1;startSize=30;horizontalStack=0;resizeParent=1;resizeParentMax=0;resizeLast=0;collapsible=1;marginBottom=0;whiteSpace=wrap;html=1;fillColor=#009999;strokeColor=#009999;rounded=1;shadow=1;glass=1;swimlaneLine=0;strokeWidth=2;fontSize=13;" vertex="1" parent="WIyWlLk6GJQsqaUBKTNV-1">
          <mxGeometry x="1583" y="-88" width="226" height="110" as="geometry" />
        </mxCell>
        <mxCell id="bgD4bhp47jV61R5AHMAy-16" value="" style="line;strokeWidth=2;fillColor=none;align=left;verticalAlign=middle;spacingTop=-1;spacingLeft=3;spacingRight=3;rotatable=0;labelPosition=right;points=[];portConstraint=eastwest;strokeColor=inherit;shadow=1;" vertex="1" parent="bgD4bhp47jV61R5AHMAy-14">
          <mxGeometry y="30" width="226" height="8" as="geometry" />
        </mxCell>
        <mxCell id="bgD4bhp47jV61R5AHMAy-17" value="&lt;font style=&quot;&quot;&gt;&lt;font style=&quot;font-size: 14px;&quot;&gt;+isValidMovement&lt;span style=&quot;color: rgb(31, 35, 40); font-family: ui-monospace, SFMono-Regular, &amp;quot;SF Mono&amp;quot;, Menlo, Consolas, &amp;quot;Liberation Mono&amp;quot;, monospace;&quot;&gt;(&lt;/span&gt;&lt;span style=&quot;box-sizing: border-box; color: var(--color-prettylights-syntax-storage-modifier-import); font-family: ui-monospace, SFMono-Regular, &amp;quot;SF Mono&amp;quot;, Menlo, Consolas, &amp;quot;Liberation Mono&amp;quot;, monospace;&quot; class=&quot;pl-smi&quot;&gt;int&lt;/span&gt;&lt;span style=&quot;color: rgb(31, 35, 40); font-family: ui-monospace, SFMono-Regular, &amp;quot;SF Mono&amp;quot;, Menlo, Consolas, &amp;quot;Liberation Mono&amp;quot;, monospace;&quot;&gt; &lt;/span&gt;&lt;span style=&quot;box-sizing: border-box; color: rgb(31, 35, 40); font-family: ui-monospace, SFMono-Regular, &amp;quot;SF Mono&amp;quot;, Menlo, Consolas, &amp;quot;Liberation Mono&amp;quot;, monospace;&quot; class=&quot;pl-s1&quot;&gt;col&lt;/span&gt;&lt;span style=&quot;color: rgb(31, 35, 40); font-family: ui-monospace, SFMono-Regular, &amp;quot;SF Mono&amp;quot;, Menlo, Consolas, &amp;quot;Liberation Mono&amp;quot;, monospace;&quot;&gt;, &lt;/span&gt;&lt;span style=&quot;box-sizing: border-box; color: var(--color-prettylights-syntax-storage-modifier-import); font-family: ui-monospace, SFMono-Regular, &amp;quot;SF Mono&amp;quot;, Menlo, Consolas, &amp;quot;Liberation Mono&amp;quot;, monospace;&quot; class=&quot;pl-smi&quot;&gt;int&lt;/span&gt;&lt;span style=&quot;color: rgb(31, 35, 40); font-family: ui-monospace, SFMono-Regular, &amp;quot;SF Mono&amp;quot;, Menlo, Consolas, &amp;quot;Liberation Mono&amp;quot;, monospace;&quot;&gt; &lt;/span&gt;&lt;span style=&quot;box-sizing: border-box; color: rgb(31, 35, 40); font-family: ui-monospace, SFMono-Regular, &amp;quot;SF Mono&amp;quot;, Menlo, Consolas, &amp;quot;Liberation Mono&amp;quot;, monospace;&quot; class=&quot;pl-s1&quot;&gt;row&lt;/span&gt;&lt;span style=&quot;color: rgb(31, 35, 40); font-family: ui-monospace, SFMono-Regular, &amp;quot;SF Mono&amp;quot;, Menlo, Consolas, &amp;quot;Liberation Mono&amp;quot;, monospace;&quot;&gt;): boolean&lt;/span&gt;&lt;/font&gt;&lt;br&gt;&lt;/font&gt;" style="text;strokeColor=none;fillColor=none;align=left;verticalAlign=top;spacingLeft=4;spacingRight=4;overflow=hidden;rotatable=0;points=[[0,0.5],[1,0.5]];portConstraint=eastwest;whiteSpace=wrap;html=1;" vertex="1" parent="bgD4bhp47jV61R5AHMAy-14">
          <mxGeometry y="38" width="226" height="72" as="geometry" />
        </mxCell>
        <mxCell id="bgD4bhp47jV61R5AHMAy-18" value="&lt;font style=&quot;font-size: 13px;&quot;&gt;Queen&amp;nbsp;&lt;/font&gt;" style="swimlane;fontStyle=1;align=center;verticalAlign=top;childLayout=stackLayout;horizontal=1;startSize=30;horizontalStack=0;resizeParent=1;resizeParentMax=0;resizeLast=0;collapsible=1;marginBottom=0;whiteSpace=wrap;html=1;fillColor=#009999;strokeColor=#009999;rounded=1;shadow=1;glass=1;swimlaneLine=0;strokeWidth=2;fontSize=13;" vertex="1" parent="WIyWlLk6GJQsqaUBKTNV-1">
          <mxGeometry x="1233" y="-88" width="329" height="110" as="geometry" />
        </mxCell>
        <mxCell id="bgD4bhp47jV61R5AHMAy-19" value="" style="line;strokeWidth=2;fillColor=none;align=left;verticalAlign=middle;spacingTop=-1;spacingLeft=3;spacingRight=3;rotatable=0;labelPosition=right;points=[];portConstraint=eastwest;strokeColor=inherit;shadow=1;" vertex="1" parent="bgD4bhp47jV61R5AHMAy-18">
          <mxGeometry y="30" width="329" height="8" as="geometry" />
        </mxCell>
        <mxCell id="bgD4bhp47jV61R5AHMAy-20" value="&lt;font style=&quot;&quot;&gt;&lt;span style=&quot;font-size: 13px;&quot;&gt;+isValidMovement&lt;/span&gt;&lt;span style=&quot;font-size: 14px; border-color: var(--border-color); color: rgb(31, 35, 40); font-family: ui-monospace, SFMono-Regular, &amp;quot;SF Mono&amp;quot;, Menlo, Consolas, &amp;quot;Liberation Mono&amp;quot;, monospace;&quot;&gt;(&lt;/span&gt;&lt;span style=&quot;font-size: 14px; border-color: var(--border-color); color: var(--color-prettylights-syntax-storage-modifier-import); box-sizing: border-box; font-family: ui-monospace, SFMono-Regular, &amp;quot;SF Mono&amp;quot;, Menlo, Consolas, &amp;quot;Liberation Mono&amp;quot;, monospace;&quot; class=&quot;pl-smi&quot;&gt;int&lt;/span&gt;&lt;span style=&quot;font-size: 14px; border-color: var(--border-color); color: rgb(31, 35, 40); font-family: ui-monospace, SFMono-Regular, &amp;quot;SF Mono&amp;quot;, Menlo, Consolas, &amp;quot;Liberation Mono&amp;quot;, monospace;&quot;&gt;&amp;nbsp;&lt;/span&gt;&lt;span style=&quot;font-size: 14px; border-color: var(--border-color); box-sizing: border-box; color: rgb(31, 35, 40); font-family: ui-monospace, SFMono-Regular, &amp;quot;SF Mono&amp;quot;, Menlo, Consolas, &amp;quot;Liberation Mono&amp;quot;, monospace;&quot; class=&quot;pl-s1&quot;&gt;col&lt;/span&gt;&lt;span style=&quot;font-size: 14px; border-color: var(--border-color); color: rgb(31, 35, 40); font-family: ui-monospace, SFMono-Regular, &amp;quot;SF Mono&amp;quot;, Menlo, Consolas, &amp;quot;Liberation Mono&amp;quot;, monospace;&quot;&gt;,&amp;nbsp;&lt;/span&gt;&lt;span style=&quot;font-size: 14px; border-color: var(--border-color); color: var(--color-prettylights-syntax-storage-modifier-import); box-sizing: border-box; font-family: ui-monospace, SFMono-Regular, &amp;quot;SF Mono&amp;quot;, Menlo, Consolas, &amp;quot;Liberation Mono&amp;quot;, monospace;&quot; class=&quot;pl-smi&quot;&gt;int&lt;/span&gt;&lt;span style=&quot;font-size: 14px; border-color: var(--border-color); color: rgb(31, 35, 40); font-family: ui-monospace, SFMono-Regular, &amp;quot;SF Mono&amp;quot;, Menlo, Consolas, &amp;quot;Liberation Mono&amp;quot;, monospace;&quot;&gt;&amp;nbsp;&lt;/span&gt;&lt;span style=&quot;font-size: 14px; border-color: var(--border-color); box-sizing: border-box; color: rgb(31, 35, 40); font-family: ui-monospace, SFMono-Regular, &amp;quot;SF Mono&amp;quot;, Menlo, Consolas, &amp;quot;Liberation Mono&amp;quot;, monospace;&quot; class=&quot;pl-s1&quot;&gt;row&lt;/span&gt;&lt;span style=&quot;font-size: 14px; border-color: var(--border-color); color: rgb(31, 35, 40); font-family: ui-monospace, SFMono-Regular, &amp;quot;SF Mono&amp;quot;, Menlo, Consolas, &amp;quot;Liberation Mono&amp;quot;, monospace;&quot;&gt;): boolean&lt;br&gt;&lt;/span&gt;&lt;font style=&quot;font-size: 14px;&quot;&gt;+moveCollidesWithPiece&lt;span style=&quot;color: rgb(31, 35, 40); font-family: ui-monospace, SFMono-Regular, &amp;quot;SF Mono&amp;quot;, Menlo, Consolas, &amp;quot;Liberation Mono&amp;quot;, monospace;&quot;&gt;(&lt;/span&gt;&lt;span style=&quot;box-sizing: border-box; color: var(--color-prettylights-syntax-storage-modifier-import); font-family: ui-monospace, SFMono-Regular, &amp;quot;SF Mono&amp;quot;, Menlo, Consolas, &amp;quot;Liberation Mono&amp;quot;, monospace;&quot; class=&quot;pl-smi&quot;&gt;int&lt;/span&gt;&lt;span style=&quot;color: rgb(31, 35, 40); font-family: ui-monospace, SFMono-Regular, &amp;quot;SF Mono&amp;quot;, Menlo, Consolas, &amp;quot;Liberation Mono&amp;quot;, monospace;&quot;&gt; &lt;/span&gt;&lt;span style=&quot;box-sizing: border-box; color: rgb(31, 35, 40); font-family: ui-monospace, SFMono-Regular, &amp;quot;SF Mono&amp;quot;, Menlo, Consolas, &amp;quot;Liberation Mono&amp;quot;, monospace;&quot; class=&quot;pl-s1&quot;&gt;col&lt;/span&gt;&lt;span style=&quot;color: rgb(31, 35, 40); font-family: ui-monospace, SFMono-Regular, &amp;quot;SF Mono&amp;quot;, Menlo, Consolas, &amp;quot;Liberation Mono&amp;quot;, monospace;&quot;&gt;, &lt;/span&gt;&lt;span style=&quot;box-sizing: border-box; color: var(--color-prettylights-syntax-storage-modifier-import); font-family: ui-monospace, SFMono-Regular, &amp;quot;SF Mono&amp;quot;, Menlo, Consolas, &amp;quot;Liberation Mono&amp;quot;, monospace;&quot; class=&quot;pl-smi&quot;&gt;int&lt;/span&gt;&lt;span style=&quot;color: rgb(31, 35, 40); font-family: ui-monospace, SFMono-Regular, &amp;quot;SF Mono&amp;quot;, Menlo, Consolas, &amp;quot;Liberation Mono&amp;quot;, monospace;&quot;&gt; &lt;/span&gt;&lt;span style=&quot;box-sizing: border-box; color: rgb(31, 35, 40); font-family: ui-monospace, SFMono-Regular, &amp;quot;SF Mono&amp;quot;, Menlo, Consolas, &amp;quot;Liberation Mono&amp;quot;, monospace;&quot; class=&quot;pl-s1&quot;&gt;row&lt;/span&gt;&lt;span style=&quot;color: rgb(31, 35, 40); font-family: ui-monospace, SFMono-Regular, &amp;quot;SF Mono&amp;quot;, Menlo, Consolas, &amp;quot;Liberation Mono&amp;quot;, monospace;&quot;&gt;): boolean&lt;/span&gt;&lt;/font&gt;&lt;br&gt;&lt;/font&gt;" style="text;strokeColor=none;fillColor=none;align=left;verticalAlign=top;spacingLeft=4;spacingRight=4;overflow=hidden;rotatable=0;points=[[0,0.5],[1,0.5]];portConstraint=eastwest;whiteSpace=wrap;html=1;" vertex="1" parent="bgD4bhp47jV61R5AHMAy-18">
          <mxGeometry y="38" width="329" height="72" as="geometry" />
        </mxCell>
        <mxCell id="bgD4bhp47jV61R5AHMAy-21" value="&lt;font style=&quot;font-size: 13px;&quot;&gt;Knight&lt;/font&gt;" style="swimlane;fontStyle=1;align=center;verticalAlign=top;childLayout=stackLayout;horizontal=1;startSize=30;horizontalStack=0;resizeParent=1;resizeParentMax=0;resizeLast=0;collapsible=1;marginBottom=0;whiteSpace=wrap;html=1;fillColor=#009999;strokeColor=#009999;rounded=1;shadow=1;glass=1;swimlaneLine=0;strokeWidth=2;fontSize=13;" vertex="1" parent="WIyWlLk6GJQsqaUBKTNV-1">
          <mxGeometry x="1824" y="-88" width="269" height="110" as="geometry" />
        </mxCell>
        <mxCell id="bgD4bhp47jV61R5AHMAy-22" value="" style="line;strokeWidth=2;fillColor=none;align=left;verticalAlign=middle;spacingTop=-1;spacingLeft=3;spacingRight=3;rotatable=0;labelPosition=right;points=[];portConstraint=eastwest;strokeColor=inherit;shadow=1;" vertex="1" parent="bgD4bhp47jV61R5AHMAy-21">
          <mxGeometry y="30" width="269" height="8" as="geometry" />
        </mxCell>
        <mxCell id="bgD4bhp47jV61R5AHMAy-23" value="&lt;font style=&quot;&quot;&gt;&lt;font style=&quot;font-size: 14px;&quot;&gt;+isValidMovement&lt;span style=&quot;color: rgb(31, 35, 40); font-family: ui-monospace, SFMono-Regular, &amp;quot;SF Mono&amp;quot;, Menlo, Consolas, &amp;quot;Liberation Mono&amp;quot;, monospace;&quot;&gt;(&lt;/span&gt;&lt;span style=&quot;box-sizing: border-box; color: var(--color-prettylights-syntax-storage-modifier-import); font-family: ui-monospace, SFMono-Regular, &amp;quot;SF Mono&amp;quot;, Menlo, Consolas, &amp;quot;Liberation Mono&amp;quot;, monospace;&quot; class=&quot;pl-smi&quot;&gt;int&lt;/span&gt;&lt;span style=&quot;color: rgb(31, 35, 40); font-family: ui-monospace, SFMono-Regular, &amp;quot;SF Mono&amp;quot;, Menlo, Consolas, &amp;quot;Liberation Mono&amp;quot;, monospace;&quot;&gt; &lt;/span&gt;&lt;span style=&quot;box-sizing: border-box; color: rgb(31, 35, 40); font-family: ui-monospace, SFMono-Regular, &amp;quot;SF Mono&amp;quot;, Menlo, Consolas, &amp;quot;Liberation Mono&amp;quot;, monospace;&quot; class=&quot;pl-s1&quot;&gt;col&lt;/span&gt;&lt;span style=&quot;color: rgb(31, 35, 40); font-family: ui-monospace, SFMono-Regular, &amp;quot;SF Mono&amp;quot;, Menlo, Consolas, &amp;quot;Liberation Mono&amp;quot;, monospace;&quot;&gt;, &lt;/span&gt;&lt;span style=&quot;box-sizing: border-box; color: var(--color-prettylights-syntax-storage-modifier-import); font-family: ui-monospace, SFMono-Regular, &amp;quot;SF Mono&amp;quot;, Menlo, Consolas, &amp;quot;Liberation Mono&amp;quot;, monospace;&quot; class=&quot;pl-smi&quot;&gt;int&lt;/span&gt;&lt;span style=&quot;color: rgb(31, 35, 40); font-family: ui-monospace, SFMono-Regular, &amp;quot;SF Mono&amp;quot;, Menlo, Consolas, &amp;quot;Liberation Mono&amp;quot;, monospace;&quot;&gt; &lt;/span&gt;&lt;span style=&quot;box-sizing: border-box; color: rgb(31, 35, 40); font-family: ui-monospace, SFMono-Regular, &amp;quot;SF Mono&amp;quot;, Menlo, Consolas, &amp;quot;Liberation Mono&amp;quot;, monospace;&quot; class=&quot;pl-s1&quot;&gt;row&lt;/span&gt;&lt;span style=&quot;color: rgb(31, 35, 40); font-family: ui-monospace, SFMono-Regular, &amp;quot;SF Mono&amp;quot;, Menlo, Consolas, &amp;quot;Liberation Mono&amp;quot;, monospace;&quot;&gt;): boolean&lt;/span&gt;&lt;/font&gt;&lt;br&gt;&lt;/font&gt;" style="text;strokeColor=none;fillColor=none;align=left;verticalAlign=top;spacingLeft=4;spacingRight=4;overflow=hidden;rotatable=0;points=[[0,0.5],[1,0.5]];portConstraint=eastwest;whiteSpace=wrap;html=1;" vertex="1" parent="bgD4bhp47jV61R5AHMAy-21">
          <mxGeometry y="38" width="269" height="72" as="geometry" />
        </mxCell>
        <mxCell id="bgD4bhp47jV61R5AHMAy-27" value="&lt;font style=&quot;font-size: 13px;&quot;&gt;Rook&amp;nbsp;&lt;/font&gt;" style="swimlane;fontStyle=1;align=center;verticalAlign=top;childLayout=stackLayout;horizontal=1;startSize=30;horizontalStack=0;resizeParent=1;resizeParentMax=0;resizeLast=0;collapsible=1;marginBottom=0;whiteSpace=wrap;html=1;fillColor=#009999;strokeColor=#009999;rounded=1;shadow=1;glass=1;swimlaneLine=0;strokeWidth=2;fontSize=13;" vertex="1" parent="WIyWlLk6GJQsqaUBKTNV-1">
          <mxGeometry x="885" y="-85" width="329" height="110" as="geometry" />
        </mxCell>
        <mxCell id="bgD4bhp47jV61R5AHMAy-28" value="" style="line;strokeWidth=2;fillColor=none;align=left;verticalAlign=middle;spacingTop=-1;spacingLeft=3;spacingRight=3;rotatable=0;labelPosition=right;points=[];portConstraint=eastwest;strokeColor=inherit;shadow=1;" vertex="1" parent="bgD4bhp47jV61R5AHMAy-27">
          <mxGeometry y="30" width="329" height="8" as="geometry" />
        </mxCell>
        <mxCell id="bgD4bhp47jV61R5AHMAy-29" value="&lt;font style=&quot;&quot;&gt;&lt;span style=&quot;font-size: 13px;&quot;&gt;+isValidMovement&lt;/span&gt;&lt;span style=&quot;font-size: 14px; border-color: var(--border-color); color: rgb(31, 35, 40); font-family: ui-monospace, SFMono-Regular, &amp;quot;SF Mono&amp;quot;, Menlo, Consolas, &amp;quot;Liberation Mono&amp;quot;, monospace;&quot;&gt;(&lt;/span&gt;&lt;span style=&quot;font-size: 14px; border-color: var(--border-color); color: var(--color-prettylights-syntax-storage-modifier-import); box-sizing: border-box; font-family: ui-monospace, SFMono-Regular, &amp;quot;SF Mono&amp;quot;, Menlo, Consolas, &amp;quot;Liberation Mono&amp;quot;, monospace;&quot; class=&quot;pl-smi&quot;&gt;int&lt;/span&gt;&lt;span style=&quot;font-size: 14px; border-color: var(--border-color); color: rgb(31, 35, 40); font-family: ui-monospace, SFMono-Regular, &amp;quot;SF Mono&amp;quot;, Menlo, Consolas, &amp;quot;Liberation Mono&amp;quot;, monospace;&quot;&gt;&amp;nbsp;&lt;/span&gt;&lt;span style=&quot;font-size: 14px; border-color: var(--border-color); box-sizing: border-box; color: rgb(31, 35, 40); font-family: ui-monospace, SFMono-Regular, &amp;quot;SF Mono&amp;quot;, Menlo, Consolas, &amp;quot;Liberation Mono&amp;quot;, monospace;&quot; class=&quot;pl-s1&quot;&gt;col&lt;/span&gt;&lt;span style=&quot;font-size: 14px; border-color: var(--border-color); color: rgb(31, 35, 40); font-family: ui-monospace, SFMono-Regular, &amp;quot;SF Mono&amp;quot;, Menlo, Consolas, &amp;quot;Liberation Mono&amp;quot;, monospace;&quot;&gt;,&amp;nbsp;&lt;/span&gt;&lt;span style=&quot;font-size: 14px; border-color: var(--border-color); color: var(--color-prettylights-syntax-storage-modifier-import); box-sizing: border-box; font-family: ui-monospace, SFMono-Regular, &amp;quot;SF Mono&amp;quot;, Menlo, Consolas, &amp;quot;Liberation Mono&amp;quot;, monospace;&quot; class=&quot;pl-smi&quot;&gt;int&lt;/span&gt;&lt;span style=&quot;font-size: 14px; border-color: var(--border-color); color: rgb(31, 35, 40); font-family: ui-monospace, SFMono-Regular, &amp;quot;SF Mono&amp;quot;, Menlo, Consolas, &amp;quot;Liberation Mono&amp;quot;, monospace;&quot;&gt;&amp;nbsp;&lt;/span&gt;&lt;span style=&quot;font-size: 14px; border-color: var(--border-color); box-sizing: border-box; color: rgb(31, 35, 40); font-family: ui-monospace, SFMono-Regular, &amp;quot;SF Mono&amp;quot;, Menlo, Consolas, &amp;quot;Liberation Mono&amp;quot;, monospace;&quot; class=&quot;pl-s1&quot;&gt;row&lt;/span&gt;&lt;span style=&quot;font-size: 14px; border-color: var(--border-color); color: rgb(31, 35, 40); font-family: ui-monospace, SFMono-Regular, &amp;quot;SF Mono&amp;quot;, Menlo, Consolas, &amp;quot;Liberation Mono&amp;quot;, monospace;&quot;&gt;): boolean&lt;br&gt;&lt;/span&gt;&lt;font style=&quot;font-size: 14px;&quot;&gt;+moveCollidesWithPiece&lt;span style=&quot;color: rgb(31, 35, 40); font-family: ui-monospace, SFMono-Regular, &amp;quot;SF Mono&amp;quot;, Menlo, Consolas, &amp;quot;Liberation Mono&amp;quot;, monospace;&quot;&gt;(&lt;/span&gt;&lt;span style=&quot;box-sizing: border-box; color: var(--color-prettylights-syntax-storage-modifier-import); font-family: ui-monospace, SFMono-Regular, &amp;quot;SF Mono&amp;quot;, Menlo, Consolas, &amp;quot;Liberation Mono&amp;quot;, monospace;&quot; class=&quot;pl-smi&quot;&gt;int&lt;/span&gt;&lt;span style=&quot;color: rgb(31, 35, 40); font-family: ui-monospace, SFMono-Regular, &amp;quot;SF Mono&amp;quot;, Menlo, Consolas, &amp;quot;Liberation Mono&amp;quot;, monospace;&quot;&gt; &lt;/span&gt;&lt;span style=&quot;box-sizing: border-box; color: rgb(31, 35, 40); font-family: ui-monospace, SFMono-Regular, &amp;quot;SF Mono&amp;quot;, Menlo, Consolas, &amp;quot;Liberation Mono&amp;quot;, monospace;&quot; class=&quot;pl-s1&quot;&gt;col&lt;/span&gt;&lt;span style=&quot;color: rgb(31, 35, 40); font-family: ui-monospace, SFMono-Regular, &amp;quot;SF Mono&amp;quot;, Menlo, Consolas, &amp;quot;Liberation Mono&amp;quot;, monospace;&quot;&gt;, &lt;/span&gt;&lt;span style=&quot;box-sizing: border-box; color: var(--color-prettylights-syntax-storage-modifier-import); font-family: ui-monospace, SFMono-Regular, &amp;quot;SF Mono&amp;quot;, Menlo, Consolas, &amp;quot;Liberation Mono&amp;quot;, monospace;&quot; class=&quot;pl-smi&quot;&gt;int&lt;/span&gt;&lt;span style=&quot;color: rgb(31, 35, 40); font-family: ui-monospace, SFMono-Regular, &amp;quot;SF Mono&amp;quot;, Menlo, Consolas, &amp;quot;Liberation Mono&amp;quot;, monospace;&quot;&gt; &lt;/span&gt;&lt;span style=&quot;box-sizing: border-box; color: rgb(31, 35, 40); font-family: ui-monospace, SFMono-Regular, &amp;quot;SF Mono&amp;quot;, Menlo, Consolas, &amp;quot;Liberation Mono&amp;quot;, monospace;&quot; class=&quot;pl-s1&quot;&gt;row&lt;/span&gt;&lt;span style=&quot;color: rgb(31, 35, 40); font-family: ui-monospace, SFMono-Regular, &amp;quot;SF Mono&amp;quot;, Menlo, Consolas, &amp;quot;Liberation Mono&amp;quot;, monospace;&quot;&gt;): boolean&lt;/span&gt;&lt;/font&gt;&lt;br&gt;&lt;/font&gt;" style="text;strokeColor=none;fillColor=none;align=left;verticalAlign=top;spacingLeft=4;spacingRight=4;overflow=hidden;rotatable=0;points=[[0,0.5],[1,0.5]];portConstraint=eastwest;whiteSpace=wrap;html=1;" vertex="1" parent="bgD4bhp47jV61R5AHMAy-27">
          <mxGeometry y="38" width="329" height="72" as="geometry" />
        </mxCell>
        <mxCell id="bgD4bhp47jV61R5AHMAy-32" value="" style="endArrow=none;html=1;rounded=0;strokeColor=#009999;shadow=1;strokeWidth=3;" edge="1" parent="WIyWlLk6GJQsqaUBKTNV-1">
          <mxGeometry width="50" height="50" relative="1" as="geometry">
            <mxPoint x="742" y="-93" as="sourcePoint" />
            <mxPoint x="607" y="-154" as="targetPoint" />
            <Array as="points">
              <mxPoint x="742" y="-154" />
              <mxPoint x="702" y="-154" />
              <mxPoint x="677" y="-154" />
            </Array>
          </mxGeometry>
        </mxCell>
      </root>
    </mxGraphModel>
  </diagram>
</mxfile>
